<svg xmlns="http://www.w3.org/2000/svg" viewBox="0 0 3849.931 304.219">
  <title>4-2</title>
  <g>
    <path d="M1559.585,421.863q-1-3.1,4.478-7.08a30.384,30.384,0,0,1,12.248-5.561q7.835-1.7,12.626,1.31,5.82,3.619,5.536,13.286-.64,26.3-19.465,38.744,1.827-1.364,2-5,.387-8.13-10.147-21.938A44.621,44.621,0,0,1,1559.585,421.863Z" transform="translate(-123.066 -233.652)" fill="#fff" stroke="#fff" stroke-miterlimit="10"/>
    <path d="M1168.359,404.15a81.32,81.32,0,0,0-7.861-3.352q-8.672-3.264-13.072-2.811l9.169-2.886a168.342,168.342,0,0,1,21.558-4.706q33.074-4.874,44.858,8.629a122.445,122.445,0,0,1-20.761,6.643Q1179.288,410.917,1168.359,404.15Z" transform="translate(-123.066 -233.652)" fill="#fff" stroke="#fff" stroke-miterlimit="10"/>
    <path d="M1331.1,334.326q44.248-19.48,84.471-35.15,183.035-71.369,282.452-64.4,117.664,17.627,77.72,168.424-6.106,22.909-26.59,24.281L1263.5,411.131l-86.368-3.827Q1259.414,365.844,1331.1,334.326Z" transform="translate(-123.066 -233.652)" fill="#fff" stroke="#fff" stroke-miterlimit="10"/>
    <path d="M1214.889,402.189l7.949.492q-1.952,24.309-39.37,32.415a140.886,140.886,0,0,1-37,3.272q4.869-1.273,11.322-9.907l5.491-8.3q6.1-14.5,33.43-17.415A116.174,116.174,0,0,1,1214.889,402.189Z" transform="translate(-123.066 -233.652)" fill="#fff" stroke="#fff" stroke-miterlimit="10"/>
    <path d="M1536.135,410.859a107.188,107.188,0,0,1,18.477-4.99q5.491-.588,8.779-1.183,6.042-1.05,7.652-3.405l-5.637,11.067a157.146,157.146,0,0,1-15.813,23.082q-26.523,31.73-53.577,22.3,1.88.5,4.466-1.274,6.011-4.116,10.6-19.015Q1516.84,418.236,1536.135,410.859Z" transform="translate(-123.066 -233.652)" fill="#fff" stroke="#fff" stroke-miterlimit="10"/>
    <path d="M1647.946,368.866a3.558,3.558,0,0,1-1.009-2.636,3.615,3.615,0,0,1,1.256-2.546,3.916,3.916,0,0,1,2.767-.928,3.719,3.719,0,0,1,2.555,1.14,3.559,3.559,0,0,1,1.009,2.636,3.616,3.616,0,0,1-1.256,2.546,3.775,3.775,0,0,1-2.654.933A3.859,3.859,0,0,1,1647.946,368.866Z" transform="translate(-123.066 -233.652)" fill="#221f1f" stroke="#221f1f" stroke-miterlimit="10"/>
    <path d="M1672.953,408.477q-8.569.533-12.692-.785a28.33,28.33,0,0,1-11.582-6.877q10.8,8.085,35.113,4.51,43.683-6.113,92.252-2.075l-2.1,5.8Q1732.369,404.128,1672.953,408.477Z" transform="translate(-123.066 -233.652)" fill="#221f1f" stroke="#221f1f" stroke-miterlimit="10"/>
  </g>
  <path d="M2164.191,508.954a211.037,211.037,0,0,0-36.363-14.5l5.541-2.76a49.8,49.8,0,0,0-31.651-2.31,108.1,108.1,0,0,0-34.777,2.056q5.8,3.3,11.4,6.7a156.135,156.135,0,0,0-29.074,17.657l47.932-5.553a392.393,392.393,0,0,1,31.389,23.623,61.544,61.544,0,0,0-1.309-27.612Z" transform="translate(-123.066 -233.652)" fill="#fff" stroke="#fff" stroke-miterlimit="10"/>
  <g>
    <g>
      <path d="M3879.313,321.35h0l-.754-1.265a107.324,107.324,0,0,0-17.985,4.193c.443.181.877.354,1.3.52h0s7.052,2.935,12.276,3.684l.008,0q.633.08,1.209.16l.187.026,6.171-3.138Z" transform="translate(-123.066 -233.652)" fill="#fff" stroke="#fff" stroke-miterlimit="10"/>
      <g>
        <path d="M3864.568,325.559q1.1.419,2.152.8l8.679-1.723-11.059.864a.87.87,0,0,0,.229.063" transform="translate(-123.066 -233.652)" fill="#fff" stroke="#fff" stroke-miterlimit="10"/>
        <path d="M3863.939,325.427l.35.16a.965.965,0,0,0,.247.07c.726.277,1.447.543,2.142.793l.031.011,9.653-1.956Zm.912.129,9.549-.788-7.67,1.482C3866.117,326.03,3865.487,325.8,3864.85,325.556Z" transform="translate(-123.066 -233.652)" fill="#221f1f" stroke="#fff" stroke-miterlimit="10"/>
      </g>
      <g>
        <path d="M3868.483,326.939q1.076.335,2.06.608l6.032-2.06-8.092,1.452" transform="translate(-123.066 -233.652)" fill="#fff" stroke="#fff" stroke-miterlimit="10"/>
        <path d="M3868.061,326.915l.386.12c.716.223,1.41.428,2.064.609l.036.01,6.691-2.371Zm2.478.524c-.522-.145-1.069-.3-1.632-.477l6.969-1.322Z" transform="translate(-123.066 -233.652)" fill="#221f1f" stroke="#fff" stroke-miterlimit="10"/>
      </g>
      <g>
        <path d="M3873.6,328.142l2.106-1.676-3.5,1.4q.572.084,1.076.21A.673.673,0,0,1,3873.6,328.142Z" transform="translate(-123.066 -233.652)" fill="#fff" stroke="#fff" stroke-miterlimit="10"/>
        <path d="M3873.612,328.268l-.069-.038a.566.566,0,0,0-.263-.048l-.029,0c-.33-.082-.688-.152-1.064-.207l-.374-.055,4.517-1.81Zm-.317-.29a.887.887,0,0,1,.287.044l1.5-1.194-2.5,1C3872.832,327.872,3873.07,327.922,3873.295,327.978Z" transform="translate(-123.066 -233.652)" fill="#221f1f" stroke="#fff" stroke-miterlimit="10"/>
      </g>
      <path d="M3861.1,324.35s12.336-2.674,18.3-2.845" transform="translate(-123.066 -233.652)" fill="#fff" stroke="#fff" stroke-miterlimit="10"/>
    </g>
    <g>
      <path d="M3948.67,336.991h0l.754-1.265a107.324,107.324,0,0,1,17.985,4.193c-.443.181-.877.354-1.3.52h0s-7.052,2.935-12.276,3.684l-.008,0q-.633.08-1.209.16l-.187.026-6.171-3.138Z" transform="translate(-123.066 -233.652)" fill="#fff" stroke="#fff" stroke-miterlimit="10"/>
      <g>
        <path d="M3963.415,341.2a.87.87,0,0,0,.229-.063l-11.059-.864,8.679,1.723q1.053-.377,2.152-.8" transform="translate(-123.066 -233.652)" fill="#fff" stroke="#fff" stroke-miterlimit="10"/>
        <path d="M3951.62,340.146l9.653,1.956.031-.011c.7-.249,1.416-.516,2.142-.793a.965.965,0,0,0,.247-.07l.35-.16Zm9.634,1.744-7.67-1.482,9.549.788C3962.5,341.438,3961.866,341.671,3961.254,341.89Z" transform="translate(-123.066 -233.652)" fill="#221f1f" stroke="#fff" stroke-miterlimit="10"/>
      </g>
      <g>
        <path d="M3959.5,342.58l-8.092-1.452,6.032,2.06q.984-.272,2.06-.608" transform="translate(-123.066 -233.652)" fill="#fff" stroke="#fff" stroke-miterlimit="10"/>
        <path d="M3950.745,340.924l6.691,2.371.036-.01c.654-.181,1.348-.386,2.064-.609l.386-.12Zm1.361.357,6.969,1.322c-.563.172-1.11.332-1.632.477Z" transform="translate(-123.066 -233.652)" fill="#221f1f" stroke="#fff" stroke-miterlimit="10"/>
      </g>
      <g>
        <path d="M3954.7,343.72q.5-.126,1.076-.21l-3.5-1.4,2.106,1.676A.673.673,0,0,1,3954.7,343.72Z" transform="translate(-123.066 -233.652)" fill="#fff" stroke="#fff" stroke-miterlimit="10"/>
        <path d="M3951.654,341.746l4.517,1.81-.374.055c-.376.055-.734.125-1.064.207l-.029,0a.566.566,0,0,0-.263.048l-.069.038Zm3.743,1.723-2.5-1,1.5,1.194a.887.887,0,0,1,.287-.044C3954.913,343.563,3955.151,343.512,3955.4,343.469Z" transform="translate(-123.066 -233.652)" fill="#221f1f" stroke="#fff" stroke-miterlimit="10"/>
      </g>
      <path d="M3966.884,339.991s-12.336-2.674-18.3-2.845" transform="translate(-123.066 -233.652)" fill="#fff" stroke="#fff" stroke-miterlimit="10"/>
    </g>
    <path d="M3891.457,329.49l-2.768-5.439-20.772,11.691Z" transform="translate(-123.066 -233.652)" fill="#fff" stroke="#fff" stroke-miterlimit="10"/>
    <path d="M3968.045,300.646l-24.2,3.6,2.032,5.718Z" transform="translate(-123.066 -233.652)" fill="#fff" stroke="#fff" stroke-miterlimit="10"/>
    <path d="M3949.05,323.7l-2.793,5.462,23.159,7Z" transform="translate(-123.066 -233.652)" fill="#fff" stroke="#fff" stroke-miterlimit="10"/>
    <path d="M3920.965,294.788l6.222,1.952,5.231-21.8Z" transform="translate(-123.066 -233.652)" fill="#fff" stroke="#fff" stroke-miterlimit="10"/>
    <path d="M3884.981,306.9l-24.3-1.743,23.032,7.624Z" transform="translate(-123.066 -233.652)" fill="#fff" stroke="#fff" stroke-miterlimit="10"/>
    <path d="M3946.13,289.605q-11.681-10.692-28.187-10.692t-28.187,10.692q-11.681,10.692-11.681,25.8a33.276,33.276,0,0,0,9.6,23.754,13.57,13.57,0,0,1,9.7-3.765q5.891,0,13.916,4.207a39.05,39.05,0,0,0,16.354,4.044q14.322.139,25.927-11.645a33.072,33.072,0,0,0,4.241-16.6Q3957.811,300.3,3946.13,289.605Z" transform="translate(-123.066 -233.652)" fill="#fff" stroke="#fff" stroke-miterlimit="10"/>
    <path d="M3952.25,273.242l-17.039,16.131,5.358,3.463Z" transform="translate(-123.066 -233.652)" fill="#fff" stroke="#fff" stroke-miterlimit="10"/>
    <path d="M3913.905,265.734l-1.108,17.734,6.5-.86Z" transform="translate(-123.066 -233.652)" fill="#fff" stroke="#fff" stroke-miterlimit="10"/>
    <path d="M3882.7,274.5l6.862,16.2,5.561-3.208Z" transform="translate(-123.066 -233.652)" fill="#fff" stroke="#fff" stroke-miterlimit="10"/>
    <path d="M3929.116,308.037a20.293,20.293,0,0,0-6.983-15.759,22.224,22.224,0,0,0-16.836-5.695,25.047,25.047,0,0,0-16.862,7.67,22.991,22.991,0,0,0-6.958,16.6q0,9.46,6.983,5.532t16.862,1.255q9.878,5.206,16.836,2.557Q3929.116,317.5,3929.116,308.037Z" transform="translate(-123.066 -233.652)" fill="#fff" stroke="#fff" stroke-miterlimit="10"/>
    <path d="M3892.371,307.154a2.278,2.278,0,0,0-.787-1.743,2.72,2.72,0,0,0-1.9-.721,2.78,2.78,0,0,0-1.9.721,2.324,2.324,0,0,0,0,3.486,2.78,2.78,0,0,0,1.9.721,2.72,2.72,0,0,0,1.9-.721A2.278,2.278,0,0,0,3892.371,307.154Z" transform="translate(-123.066 -233.652)" fill="#221f1f"/>
    <path d="M3905.449,307.154a2.278,2.278,0,0,0-.787-1.743,2.72,2.72,0,0,0-1.9-.721,2.78,2.78,0,0,0-1.9.721,2.324,2.324,0,0,0,0,3.486,2.78,2.78,0,0,0,1.9.721,2.72,2.72,0,0,0,1.9-.721A2.278,2.278,0,0,0,3905.449,307.154Z" transform="translate(-123.066 -233.652)" fill="#221f1f"/>
    <path d="M3899.049,327.607a4.87,4.87,0,0,0-2.108-1.162,9.468,9.468,0,0,0-3-.488,3.77,3.77,0,0,0-2.159.488q-.66.488-.025,1.162a.361.361,0,0,0,.127.139q-.457-.581.406-.86a6.16,6.16,0,0,1,2.133-.232,21,21,0,0,1,2.692.279,3.83,3.83,0,0,1,2.032.814A1.048,1.048,0,0,0,3899.049,327.607Z" transform="translate(-123.066 -233.652)" fill="#221f1f"/>
    <path d="M3946.13,341.2a39.612,39.612,0,0,0,6.12-7.019q.711-1.069,1.32-2.185-11.605,11.784-25.927,11.645a39.05,39.05,0,0,1-16.354-4.044q-8.025-4.207-13.916-4.207a13.57,13.57,0,0,0-9.7,3.765q.99,1.046,2.082,2.045a42.255,42.255,0,0,0,5.231,4.091,40.655,40.655,0,0,0,22.956,6.6Q3934.449,351.9,3946.13,341.2Z" transform="translate(-123.066 -233.652)" fill="#fff" stroke="#fff" stroke-miterlimit="10"/>
    <path d="M3948.8,351.129l-11.91-19.617-5.155,3.7Z" transform="translate(-123.066 -233.652)" fill="#fff" stroke="#fff" stroke-miterlimit="10"/>
    <g>
      <g>
        <path d="M3948.191,328.377a.87.87,0,0,0,.229-.063l-11.059-.864,8.679,1.723q1.053-.377,2.152-.8" transform="translate(-123.066 -233.652)" fill="#fff" stroke="#fff" stroke-miterlimit="10"/>
        <path d="M3936.4,327.324l9.653,1.956.031-.011c.7-.249,1.416-.516,2.142-.793a.965.965,0,0,0,.247-.07l.35-.16Zm9.634,1.744-7.67-1.482,9.549.788C3947.273,328.615,3946.642,328.848,3946.03,329.067Z" transform="translate(-123.066 -233.652)" fill="#221f1f" stroke="#fff" stroke-miterlimit="10"/>
      </g>
      <g>
        <path d="M3944.276,329.757l-8.092-1.452,6.032,2.06q.984-.272,2.06-.608" transform="translate(-123.066 -233.652)" fill="#fff" stroke="#fff" stroke-miterlimit="10"/>
        <path d="M3935.522,328.1l6.691,2.371.036-.01c.654-.181,1.348-.386,2.064-.609l.386-.12Zm1.361.357,6.969,1.322c-.563.172-1.11.332-1.632.477Z" transform="translate(-123.066 -233.652)" fill="#221f1f" stroke="#fff" stroke-miterlimit="10"/>
      </g>
      <g>
        <path d="M3939.479,330.9q.5-.126,1.076-.21l-3.5-1.4,2.106,1.676A.673.673,0,0,1,3939.479,330.9Z" transform="translate(-123.066 -233.652)" fill="#fff" stroke="#fff" stroke-miterlimit="10"/>
        <path d="M3936.43,328.923l4.517,1.81-.374.055c-.376.055-.734.125-1.064.207l-.029,0a.566.566,0,0,0-.263.048l-.069.038Zm3.743,1.723-2.5-1,1.5,1.194a.887.887,0,0,1,.287-.044C3939.689,330.74,3939.927,330.69,3940.174,330.646Z" transform="translate(-123.066 -233.652)" fill="#221f1f" stroke="#fff" stroke-miterlimit="10"/>
      </g>
      <path d="M3951.632,327.278c-.123-.027-13.293-2.9-19.18-3.068h.908c5.912.169,18.2,2.821,18.328,2.848Z" transform="translate(-123.066 -233.652)" fill="#221f1f" stroke="#fff" stroke-miterlimit="10"/>
    </g>
  </g>
  <g>
    <path d="M619.8,386.839q-3.63-6.888-12.784-6.777-2.63.042-2.39,5.043.335,5.512,1.016,4.7a2.451,2.451,0,0,1,2.2-.683,4.271,4.271,0,0,1,2.188.972,9.042,9.042,0,0,1,2.41,3.4q1.655,4.125-.8,12.223Q608.8,415,609.005,418.1a34.441,34.441,0,0,0,3.408,12.487,52.029,52.029,0,0,1-8.932-5.486q-8.992-6.737-14.17-8.214-7.936-2.282-14.057,3.972-2.83,2.828,6.871,7.513a2.2,2.2,0,0,1,.96-1.934,3.95,3.95,0,0,1,2.209-.764,9.125,9.125,0,0,1,4.315.693q4.43,1.62,9.283,8.765,5.573,8.24,8.14,10.176a41.7,41.7,0,0,0,11.229,5.811,54.278,54.278,0,0,1-10.9,1.355q-11.017.428-15.647,2.67-6.69,3.193-6.683,11.721-.01,3.807,8.759,1.157a2.093,2.093,0,0,1-.732-2.09,3.391,3.391,0,0,1,1.15-1.99,8.671,8.671,0,0,1,3.692-2.044q4.507-1.515,13.326.892,10.1,2.837,13.481,2.653a45.208,45.208,0,0,0,12.167-2.418,41.971,41.971,0,0,1-8.761,9.026q-8.48,6.83-10.413,10.779-3.1,6.019,2.749,12.642,2.58,2.932,7.846-3.609a2.577,2.577,0,0,1-1.983-1.109,3.7,3.7,0,0,1-.44-2.215,8.641,8.641,0,0,1,1.451-3.769q2.524-3.7,10.934-6.9,9.681-3.763,12.2-5.808,1.568,1.96,9.718,8.33,6.384,5.043,7.584,9.186a8.688,8.688,0,0,1,.051,3.981,3.892,3.892,0,0,1-1.15,1.99,2.616,2.616,0,0,1-2.27.589q3.649,9.457,7.089,7.3,7.656-4.629,6.487-12.163-.9-4.846-6.852-14.05a43.718,43.718,0,0,1-5.2-10.423,46.186,46.186,0,0,0,8.478,4.429q3.057,1.178,13.645,1.683,9.161.386,12.944,3.156a9.628,9.628,0,0,1,2.729,3.118,3.477,3.477,0,0,1,.352,2.2,2.375,2.375,0,0,1-1.463,1.7q9.109,5.511,10.532,1.9,3.058-7.929-2.918-13.245-3.939-3.455-14.673-7.375a53.509,53.509,0,0,1-10.292-4.934,45.713,45.713,0,0,0,11.079-2.406q3.161-1.043,11.1-7.37,6.984-5.469,11.755-5.87a10.778,10.778,0,0,1,4.342.532,3.479,3.479,0,0,1,1.841,1.42,1.83,1.83,0,0,1,.277,2.109q10.793-1.784,9.029-5.263-3.772-7.654-12.077-7.753-5.335-.01-16.218,3.914a50.759,50.759,0,0,1-6.866,2.092,34.858,34.858,0,0,0,6.383-9.942q1.2-2.811,1.662-12.514.333-8.4,3.272-11.873A8.234,8.234,0,0,1,714.137,404a4.45,4.45,0,0,1,2.406-.322,2.313,2.313,0,0,1,1.868,1.258q5.872-8.524,1.9-9.665-8.69-2.637-14.423,2.926-3.686,3.618-7.806,13.549-3.949,9.459-8.527,14.606-7.244,8.082-14.233,2.87l-36.453-8.553q-8.47,3.024-12.623-4.518-2.843-5.121-3.386-14.222Q622.123,391.306,619.8,386.839Z" transform="translate(-123.066 -233.652)" fill="#fff" stroke="#fff" stroke-miterlimit="10"/>
    <path d="M723.33,407.314a17.121,17.121,0,0,0,.695-5.72q-.045-5.47-6.418-7.436-8.6-2.53-13.9,3.568-2.711,3.2-7.286,14.224a48.4,48.4,0,0,1-3,6.033q-.029.173-3.832,7.085-4.467,6.712-7.783,5.923-1.9-.446-1.529-2.877l-43.457-6.15a2.139,2.139,0,0,1-2.247,1.6q-3.422-.165-5.39-7.787-1.307-7.635-1.391-7.824-.527-3.3-.79-6.568-.711-10.708-3.034-15.081-3.565-6.89-12.808-6.779-6.611.129-8.572,5.315-2.408,6.684,3.105,9.38a6.465,6.465,0,0,0,4.365.547q2.318-.417,1.582-.876l-.283.066q-2.932-.77-2.522-3.2a3.51,3.51,0,0,1,.951-1.5,2.565,2.565,0,0,1,2.284-.67,4.28,4.28,0,0,1,2.128.94,8.279,8.279,0,0,1,2.406,3.427q1.633,4.1-.808,12.125-2.809,9.288-2.637,12.4a34.187,34.187,0,0,0,3.074,11.859,44.879,44.879,0,0,1-11.527-6.1q-10.135-7-14.327-8.342-7.91-2.5-13.717,3.877-3.751,4.081-1.5,10.04a7.941,7.941,0,0,0,3.59,3.985,7.356,7.356,0,0,0,6.223.561,5.826,5.826,0,0,0,3.159-2.639q1.134-1.9.4-1.682l-.23.216q-2.512,1.56-4.222-.243a2.325,2.325,0,0,1-.6-1.752,2.028,2.028,0,0,1,.869-1.935,3.394,3.394,0,0,1,2.237-.854,8.812,8.812,0,0,1,4.251.531q4.51,1.525,9.694,8.467,5.853,8.03,8.533,9.828a39.33,39.33,0,0,0,7.912,4.1,51.689,51.689,0,0,1-11.008,2.983q-11.479,2.1-16,4.8-6.937,4.127-5.628,12.436a7.942,7.942,0,0,0,6.937,7.119q7.585,1.215,9.759-4.082a5.522,5.522,0,0,0,.012-3.972q-.744-2.021-1.12-1.4l.061.328a2.728,2.728,0,0,1-3.077,2.616,2.653,2.653,0,0,1-1.79-.644,2.046,2.046,0,0,1-1.038-1.885,2.981,2.981,0,0,1,.709-2.135,9.255,9.255,0,0,1,3.348-2.613q4.219-2.028,13.359-.841,10.433,1.335,13.719.7a42.286,42.286,0,0,0,11.093-3.716q-.922,6.149-10.17,14.774-8.595,7.972-10.645,12.081-3.5,6.955,2.663,13.148a10.592,10.592,0,0,0,5.074,2.776,9.262,9.262,0,0,0,5.833-.345q7.163-2.711,5.491-8.411a5.348,5.348,0,0,0-2.359-3.243q-1.842-1.254-1.8-.574l.16.2q1.41,2.435-.845,3.854a3.253,3.253,0,0,1-1.948.292,2.357,2.357,0,0,1-2-1.028,3.3,3.3,0,0,1-.607-2.144,6.927,6.927,0,0,1,1.072-3.822q2.286-3.9,10.513-7.63,9.41-4.309,11.8-6.525a36.457,36.457,0,0,0,4.579-5.312,35.941,35.941,0,0,0,2.651,6.335q1.509,2.768,9.058,9.477,6.612,5.831,7.429,10.169a6.916,6.916,0,0,1-.126,3.956,3.5,3.5,0,0,1-1.4,1.86,2.42,2.42,0,0,1-2.243.428,2.993,2.993,0,0,1-1.686-.806q-1.644-1.971.5-3.9l.181-.152q.3-.632-1.908.049a6.356,6.356,0,0,0-3.395,2.429,5.848,5.848,0,0,0-.712,5.363,9.24,9.24,0,0,0,3.171,4.174,9.607,9.607,0,0,0,5.636,1.968,11.845,11.845,0,0,0,6.047-1.379q7.957-4.2,6.67-11.721-.716-4.252-6.439-14.428-5.243-9.576-4.877-15.413a49.264,49.264,0,0,0,6.846,4.445q2.928,1.479,13.321,3.056,9.062,1.424,12.446,4.564a8,8,0,0,1,2.31,3.307,3.367,3.367,0,0,1,.074,2.316,2.2,2.2,0,0,1-1.612,1.51,4.089,4.089,0,0,1-1.925.153,2.675,2.675,0,0,1-2.053-3.448l.041-.243q-.046-.645-1.416,1.041a5.085,5.085,0,0,0-1.363,3.71q.371,5.835,7.919,6.584,5.955.772,8.944-4.765,4-7.629-1.244-13.515-3.413-3.889-13.692-8.891a52,52,0,0,1-10.167-6.583,41.973,41.973,0,0,0,7.387-1.509q3.149-.973,11.5-7.064,7.119-5.2,11.965-5.438a10.278,10.278,0,0,1,4.222.7,3.847,3.847,0,0,1,1.915,1.513,1.96,1.96,0,0,1,.077,2.069,2.2,2.2,0,0,1-1.128,1.4,2.939,2.939,0,0,1-4.123-.832l-.11-.264q-.667-.414-.229,1.812a4.8,4.8,0,0,0,2.158,3.285,8.706,8.706,0,0,0,5.683,1.691,9.615,9.615,0,0,0,4.437-2.175,7.088,7.088,0,0,0,2.5-5.18,11.94,11.94,0,0,0-.895-5.945q-3.392-7.682-11.223-7.442-3.879.019-15.939,3.953a71.173,71.173,0,0,1-9.254,2.238,38.314,38.314,0,0,0,5.15-8.46q1.3-2.867,1.647-12.5.339-8.431,3.172-11.9a10.371,10.371,0,0,1,3.424-2.6,4.594,4.594,0,0,1,2.414-.3,2.345,2.345,0,0,1,1.88,1.259,3.324,3.324,0,0,1,.412,1.69q-.41,2.425-3.459,2.349l-.265-.037A5.787,5.787,0,0,0,719.026,411,5.315,5.315,0,0,0,723.33,407.314Z" transform="translate(-123.066 -233.652)" fill="#fff" stroke="#fff" stroke-miterlimit="10"/>
    <path d="M733.4,279.568q-16.856-24.345-45.815-28.443-29-4.1-53.136,14.441-24.108,18.584-29.229,48.9t11.741,54.628q5.108,7.392,9.906,15.238,10.13,16.44,9.278,39.379a106.981,106.981,0,0,0,21.415,5.159,108.612,108.612,0,0,0,22.117,1q6.763-22.138,21.675-34.928,7.294-6.24,14.559-11.847,24.172-18.5,29.293-48.821T733.4,279.568Z" transform="translate(-123.066 -233.652)" fill="#fff" stroke="#fff" stroke-miterlimit="10"/>
    <path d="M649.441,415.66a3.355,3.355,0,0,0-.735-2.765,3.984,3.984,0,0,0-2.658-1.476,4.283,4.283,0,0,0-3.021.672,3.549,3.549,0,0,0-1.612,2.433,3.355,3.355,0,0,0,.735,2.765,4.07,4.07,0,0,0,2.658,1.476,4.192,4.192,0,0,0,3.021-.672A3.549,3.549,0,0,0,649.441,415.66Z" transform="translate(-123.066 -233.652)" fill="#333"/>
    <path d="M677.68,419.656a3.355,3.355,0,0,0-.735-2.765,3.984,3.984,0,0,0-2.658-1.476,4.283,4.283,0,0,0-3.021.672,3.549,3.549,0,0,0-1.612,2.433,3.355,3.355,0,0,0,.735,2.765,4.07,4.07,0,0,0,2.658,1.476,4.192,4.192,0,0,0,3.021-.672A3.549,3.549,0,0,0,677.68,419.656Z" transform="translate(-123.066 -233.652)" fill="#333"/>
  </g>
  <g>
    <path d="M2706.616,477.556l-10.539.947q-.252,13.852,13.3,34.524l10.036-2.695Q2706.549,490.669,2706.616,477.556Z" transform="translate(-123.066 -233.652)" fill="#fff"/>
    <path d="M2648.232,482.678l-10.574.9q2.772,12.865-5.77,34.4l10.382.913Q2651.368,496.234,2648.232,482.678Z" transform="translate(-123.066 -233.652)" fill="#fff"/>
    <path d="M2687.6,480.419l-10.53,1.32q2.083,22.529,8.643,39.772l10.357-2.134Q2689.659,502.468,2687.6,480.419Z" transform="translate(-123.066 -233.652)" fill="#fff"/>
    <path d="M2666.9,482.627l-10.583.523q2.5,22.011-.334,39.726l10.64.3Q2669.506,505.11,2666.9,482.627Z" transform="translate(-123.066 -233.652)" fill="#fff"/>
    <path d="M2681.412,537.214l-5.93-56.941-7.53.657,5.93,56.941Z" transform="translate(-123.066 -233.652)" fill="#fff"/>
    <path d="M2689.622,480.51l-7.449,1.158a323.549,323.549,0,0,0,12.457,48.614l7.2-2.127A319.458,319.458,0,0,1,2689.622,480.51Z" transform="translate(-123.066 -233.652)" fill="#fff"/>
    <path d="M2709.313,521.136l6.893-2.849q-12.073-24.439-13.848-40.361l-7.527.684Q2696.581,495.417,2709.313,521.136Z" transform="translate(-123.066 -233.652)" fill="#fff"/>
    <path d="M2662.173,485.206l-7.553.151a316.985,316.985,0,0,1-2.184,48.9l7.511.842A320.985,320.985,0,0,0,2662.173,485.206Z" transform="translate(-123.066 -233.652)" fill="#fff"/>
    <path d="M2636.417,525.252l7.356,1.6q7.194-27.458,5.443-44.264l-7.533.631Q2643.227,499.165,2636.417,525.252Z" transform="translate(-123.066 -233.652)" fill="#fff"/>
    <path d="M2687.608,425.528a45.552,45.552,0,0,0-21.522-3.2q-17.684,1.651-29.029,14.223-11.45,12.689-9.743,29.071a24.885,24.885,0,0,0,8.762,16.783q3.132,2.856.773,4.614a265.276,265.276,0,0,0,71.3-6.224q-2.68-1.318-.194-4.664a24.083,24.083,0,0,0,5.14-18,36.963,36.963,0,0,0-5.342-15.931,41.214,41.214,0,0,0-10.227-10.931A45.472,45.472,0,0,0,2687.608,425.528Z" transform="translate(-123.066 -233.652)" fill="#fff"/>
    <path d="M2663.267,478.878a3.161,3.161,0,0,0-2.258-.632,3.129,3.129,0,0,0-2.087,1.011,2.568,2.568,0,0,0-.691,2.067,2.66,2.66,0,0,0,1.1,1.91,3.23,3.23,0,0,0,2.258.632,3.063,3.063,0,0,0,2.087-1.011,2.568,2.568,0,0,0,.691-2.067A2.66,2.66,0,0,0,2663.267,478.878Z" transform="translate(-123.066 -233.652)" fill="#333"/>
    <path d="M2684.872,476.992a3.161,3.161,0,0,0-2.258-.632,3.129,3.129,0,0,0-2.087,1.011,2.568,2.568,0,0,0-.691,2.067,2.66,2.66,0,0,0,1.1,1.91,3.23,3.23,0,0,0,2.258.632,3.063,3.063,0,0,0,2.087-1.011,2.568,2.568,0,0,0,.691-2.067A2.66,2.66,0,0,0,2684.872,476.992Z" transform="translate(-123.066 -233.652)" fill="#333"/>
  </g>
  <g>
    <path d="M153.6,386.524l-.023.029q-1.418,22.249-14.754,21.817a.036.036,0,0,0-.055.008,1.037,1.037,0,0,0-.976.188,1.833,1.833,0,0,0-.5,1.172,2.5,2.5,0,0,0,.262,1.4,1.47,1.47,0,0,0,.866.826.691.691,0,0,1,.259.041q14.033,2.255,19.312-10.318.787-1.98,1.461-4.3a75.171,75.171,0,0,0,1.74-8.311,1.22,1.22,0,0,1,.032-.312Q157.446,384.421,153.6,386.524Z" transform="translate(-123.066 -233.652)" fill="#fff"/>
    <path d="M154.164,393.385l0,.025q4.273,19.811-12.036,25.174l-.082.012a1.7,1.7,0,0,0-1.123.644,1.577,1.577,0,0,0-.3,1.22,1.609,1.609,0,0,0,.685,1.082,1.787,1.787,0,0,0,1.283.306l0,.025a1.587,1.587,0,0,1,.324-.071q17.665-4.12,20.673-17.219a32.344,32.344,0,0,0,.607-4.388,49.41,49.41,0,0,0-.121-7.9l-.05-.3Q158.31,389.909,154.164,393.385Z" transform="translate(-123.066 -233.652)" fill="#fff"/>
    <path d="M173.454,391.444l-.063-.375q-5.849-2.841-9.869,1.386l0,.025q5.154,25.065-11.021,31.229l-.082.012a1.521,1.521,0,0,0-1.1.769,2.265,2.265,0,0,0-.249,1.52,2.306,2.306,0,0,0,.735,1.382,1.614,1.614,0,0,0,1.3.432l.008.05a.819.819,0,0,1,.32-.1q17.594-4.545,20.057-20.9a49.807,49.807,0,0,0,.419-5.514A78.083,78.083,0,0,0,173.454,391.444Z" transform="translate(-123.066 -233.652)" fill="#fff"/>
    <path d="M189.965,381.443l-.032-.021q-4.357-.95-6.539,4.222a1.271,1.271,0,0,1,.132.289,79.327,79.327,0,0,0,4.383,7.451q1.4,2.031,2.8,3.7,9.156,10.546,21.8,4.544a.662.662,0,0,1,.233-.11,1.366,1.366,0,0,0,.556-1.026,2.487,2.487,0,0,0-.208-1.4,1.964,1.964,0,0,0-.864-.98,1.044,1.044,0,0,0-.993.088.036.036,0,0,0-.055.008Q198.608,402.279,189.965,381.443Z" transform="translate(-123.066 -233.652)" fill="#fff"/>
    <path d="M191.649,388.147l0-.025q-5.094-2.179-9.869,1.386l.05.3a50.6,50.6,0,0,0,2.472,7.566,33.843,33.843,0,0,0,2.017,4.019q7.162,11.671,25.364,10.754a1.608,1.608,0,0,1,.332-.021l0-.025a1.7,1.7,0,0,0,1.123-.644,1.524,1.524,0,0,0,.3-1.22,1.665,1.665,0,0,0-.685-1.082,1.787,1.787,0,0,0-1.283-.306l-.082.012Q194.063,408.218,191.649,388.147Z" transform="translate(-123.066 -233.652)" fill="#fff"/>
    <path d="M182.417,389.827l0-.025q-5.22-2.929-9.869,1.386l.063.375a79.581,79.581,0,0,0,2.812,9.593,51.683,51.683,0,0,0,2.206,5.145q7.707,14.924,25.981,14.432a.84.84,0,0,1,.336,0l-.008-.05a1.521,1.521,0,0,0,1.1-.769,2.2,2.2,0,0,0,.249-1.52,2.373,2.373,0,0,0-.735-1.382,1.614,1.614,0,0,0-1.3-.432l-.082.012Q185.712,415.153,182.417,389.827Z" transform="translate(-123.066 -233.652)" fill="#fff"/>
    <path d="M187.795,366.331q-.37-.537-.759-1.02a24.492,24.492,0,0,0-5.018-4.725,20,20,0,0,0-14.834-3.858,18.739,18.739,0,0,0-12.8,7.74,21.7,21.7,0,0,0-3.251,5.809q-.255.65-.451,1.318a57.6,57.6,0,0,0,3.847,22.944.073.073,0,0,1,.036.046,84.9,84.9,0,0,0,19.359-.362,74.091,74.091,0,0,0,17.743-4.822A57.539,57.539,0,0,0,187.795,366.331Z" transform="translate(-123.066 -233.652)" fill="#fff"/>
    <path d="M181.416,295.417q9.176-3.517,8.656-6.619a2.424,2.424,0,0,0-.948-1.48q-11.759-5.212-35.134-9.28-20.967,10.294-30.477,18.493a2.3,2.3,0,0,0-.419,1.672q.52,3.1,10.426,3.94a105.426,105.426,0,0,0,23.415-1.034l.9-.127.9-.127A103.8,103.8,0,0,0,181.416,295.417Z" transform="translate(-123.066 -233.652)" fill="#fff"/>
    <path d="M182.68,315.8a93.283,93.283,0,0,0-4.921-10.321,63.026,63.026,0,0,0-6.618-9.6q-8.048-9.447-15.566-8.391-7.545,1.06-12.073,12.272a53.677,53.677,0,0,0-3.163,10.842,75.858,75.858,0,0,0-1.272,11.268,110.941,110.941,0,0,0-.118,11.976,147.45,147.45,0,0,0,6.266,38.2,49.283,49.283,0,0,0,25.779,3.884,42.019,42.019,0,0,0,22.227-10.625,153.305,153.305,0,0,0-6.567-38.158Q184.717,320.947,182.68,315.8Z" transform="translate(-123.066 -233.652)" fill="#fff"/>
    <path d="M163.2,384.023a4.8,4.8,0,0,0-.826-2.086,1.394,1.394,0,0,0-1.268-.718q-.656.092-.974,1.033a5.249,5.249,0,0,0,.717,4.279q.616.835,1.272.743t.97-1.058A4.491,4.491,0,0,0,163.2,384.023Z" transform="translate(-123.066 -233.652)" fill="#333"/>
    <path d="M182.8,381.271a4.8,4.8,0,0,0-.826-2.086,1.394,1.394,0,0,0-1.268-.718q-.656.092-.974,1.033a5.249,5.249,0,0,0,.717,4.279q.616.835,1.272.743t.97-1.058A4.491,4.491,0,0,0,182.8,381.271Z" transform="translate(-123.066 -233.652)" fill="#333"/>
  </g>
  <g>
    <g>
      <path d="M3302.509,330.475a23.96,23.96,0,0,0-12.651,3.48,303.325,303.325,0,0,0,0,66.5,23.96,23.96,0,0,0,12.651,3.48Q3313.244,365.454,3302.509,330.475Z" transform="translate(-123.066 -233.652)" fill="#fff"/>
      <path d="M3289.858,333.956a30.731,30.731,0,0,0-8.073,7.269q-8.556,10.763-8.556,25.983t8.556,25.97a30.637,30.637,0,0,0,8.073,7.282A303.325,303.325,0,0,1,3289.858,333.956Z" transform="translate(-123.066 -233.652)" fill="#fff"/>
    </g>
    <path d="M3308.4,410.513q-1.068-.709-2.282-4.23-1.389-3.962-11.466-3.561Q3292.769,412.28,3308.4,410.513Z" transform="translate(-123.066 -233.652)" fill="#fff"/>
    <path d="M3306.414,322.055q-9.974,1.285-10.545,5.408-.512,3.655-1.419,4.538Q3310.172,331.131,3306.414,322.055Z" transform="translate(-123.066 -233.652)" fill="#fff"/>
    <path d="M3281.2,357.03a2,2,0,0,0,0-2.936,2.285,2.285,0,0,0-1.6-.587,2.48,2.48,0,0,0-1.6.587,2,2,0,0,0,0,2.936,2.48,2.48,0,0,0,1.6.587A2.285,2.285,0,0,0,3281.2,357.03Z" transform="translate(-123.066 -233.652)" fill="#fff"/>
    <path d="M3316.125,358.145l-11.919,6.653v4.592l11.919,4.431Z" transform="translate(-123.066 -233.652)" fill="#fff"/>
    <path d="M3316.125,358.145l-2.194,1.232v13.641l2.194.8Z" transform="translate(-123.066 -233.652)" fill="#fff"/>
    <path d="M3281.057,355.541a1.264,1.264,0,0,0-.425-.973,1.515,1.515,0,0,0-1.063-.389,1.644,1.644,0,0,0-1.063.389,1.326,1.326,0,0,0,0,1.946,1.644,1.644,0,0,0,1.063.389,1.515,1.515,0,0,0,1.063-.389A1.264,1.264,0,0,0,3281.057,355.541Z" transform="translate(-123.066 -233.652)" fill="#1c0f06"/>
    <path d="M3280.878,376.645a17,17,0,0,1-6.83-.308l.293,1.218a18.919,18.919,0,0,0,3.32-.08A11.713,11.713,0,0,0,3280.878,376.645Z" transform="translate(-123.066 -233.652)" fill="#1c0f06"/>
  </g>
</svg>
