<svg xmlns="http://www.w3.org/2000/svg" viewBox="0 0 954.813 481.889">
  <title>7-2</title>
  <path d="M78.548,289.772l99.007-72.57L141.448,131,55.244,167.1,74.92,288.429c-1.356,4.19-11.884,37.036-20.88,74.121-12.927,53.293-16.693,89.534-11.194,107.717l3.7-1.119C34.279,428.589,75.375,299.608,78.548,289.772Z" transform="translate(-35.396 -83.219)" fill="#fff" stroke="#fff" stroke-miterlimit="10" stroke-width="10"/>
  <g>
    <polygon points="139.848 133.335 41.566 205.373 22.059 85.089 105.077 50.317 139.848 133.335" fill="#fff" stroke="#231f20" stroke-miterlimit="10" stroke-width="3"/>
    <line x1="22.059" y1="85.089" x2="139.233" y2="133.083" fill="#fff" stroke="#231f20" stroke-miterlimit="10" stroke-width="3"/>
    <path d="M140.473,133.537,76.962,288.593S31.74,426.681,44.756,469.718" transform="translate(-35.396 -83.219)" fill="none" stroke="#231f20" stroke-miterlimit="10" stroke-width="3"/>
  </g>
  <g>
    <path d="M191.347,358.647a93.527,93.527,0,0,1,30.974-11.036,2.333,2.333,0,0,1,1.15-1.774,7.018,7.018,0,0,1,3.341-1.141,7.184,7.184,0,0,1,3.488.362,2.417,2.417,0,0,1,1.548,1.426A94.586,94.586,0,0,1,254.11,534.1a.125.125,0,0,1,.008.027,2.211,2.211,0,0,1-1.156,2.03,7.187,7.187,0,0,1-3.307,1.168,7.582,7.582,0,0,1-3.488-.362q-1.5-.629-1.625-1.669c0-.019,0-.037,0-.057a94.616,94.616,0,0,1-53.2-176.593Z" transform="translate(-35.396 -83.219)" fill="#fff" stroke="#fff" stroke-miterlimit="10" stroke-width="10"/>
    <g>
      <path d="M223.472,345.838a7.02,7.02,0,0,1,3.341-1.141,7.186,7.186,0,0,1,3.488.362q1.468.6,1.626,1.669a2.278,2.278,0,0,1-1.19,2,7.184,7.184,0,0,1-3.306,1.168,7.019,7.019,0,0,1-3.515-.328q-1.5-.629-1.6-1.7A2.185,2.185,0,0,1,223.472,345.838Z" transform="translate(-35.396 -83.219)" fill="#fff" stroke="#231f20" stroke-miterlimit="10" stroke-width="3"/>
      <path d="M329.076,467.173a95.025,95.025,0,1,1,3.039-37.448A93.864,93.864,0,0,1,329.076,467.173Z" transform="translate(-35.396 -83.219)" fill="#fff" stroke="#231f20" stroke-miterlimit="10" stroke-width="3"/>
      <path d="M308.058,432.577a122.405,122.405,0,0,1-1.141,37.224,99.893,99.893,0,0,1-11.428,31.615,73.223,73.223,0,0,1-19.832,22.774,54.248,54.248,0,0,1-54.417,6.453,73.038,73.038,0,0,1-24.574-17.477,101.343,101.343,0,0,1-18.539-28.093,125.7,125.7,0,0,1-8.674-73.148,99.893,99.893,0,0,1,11.454-31.65,72.061,72.061,0,0,1,19.8-22.739,54.249,54.249,0,0,1,54.417-6.453A72.063,72.063,0,0,1,279.7,368.56a99.893,99.893,0,0,1,18.539,28.093A122.4,122.4,0,0,1,308.058,432.577Z" transform="translate(-35.396 -83.219)" fill="#fff" stroke="#231f20" stroke-miterlimit="10" stroke-width="3"/>
      <path d="M180.908,380.276a72.061,72.061,0,0,1,19.8-22.739,54.771,54.771,0,0,1,26.334-10.6,619.934,619.934,0,0,0,22.278,187.858,54.77,54.77,0,0,1-28.083-4.149,73.038,73.038,0,0,1-24.574-17.477,101.343,101.343,0,0,1-18.539-28.093,125.7,125.7,0,0,1-8.674-73.148A99.893,99.893,0,0,1,180.908,380.276Z" transform="translate(-35.396 -83.219)" fill="#fff" stroke="#231f20" stroke-miterlimit="10" stroke-width="3"/>
      <path d="M252.493,532.461q1.5.629,1.626,1.669a2.212,2.212,0,0,1-1.156,2.03,7.187,7.187,0,0,1-3.307,1.168,7.574,7.574,0,0,1-3.488-.362q-1.5-.629-1.626-1.669a2.212,2.212,0,0,1,1.156-2.03A7.187,7.187,0,0,1,249,532.1,7.574,7.574,0,0,1,252.493,532.461Z" transform="translate(-35.396 -83.219)" fill="#fff" stroke="#231f20" stroke-miterlimit="10" stroke-width="3"/>
    </g>
  </g>
  <path d="M945.406,149.055s.039-.117.1-.325l1.027-.1V141.3h-.007c0-.095,0-.188,0-.283-30.351-5.221-60.792-3.4-90.866,2.607-4.385.879-10.348.591-17.4.62s-12.507.378-17.4-.62c-30.063-6.1-60.529-7.822-90.863-2.607a26.2,26.2,0,0,0,1.123,8.041s5.8,4.667,6.98,11.38c1.427,8.174,2.794,19.1,6.222,28.423-2.272,2.135-4.364,4.124-6.114,5.83-16.11,15.708,2.868,16.149,15.116,8.387a20.673,20.673,0,0,0,14.5,4.908c19.093-.753,44.757-3.071,54.964-21.892a70.639,70.639,0,0,0,6.8-20.059,9.634,9.634,0,0,1,3-5.834l6.189-.628,4.723.479a9.9,9.9,0,0,1,3.454,5.983,70.173,70.173,0,0,0,6.8,20.059c10.2,18.819,35.848,21.139,54.96,21.892a20.622,20.622,0,0,0,14.927-5.287c12.214,8.152,32.061,7.951,15.693-8.008-1.941-1.894-4.3-4.137-6.87-6.544,3.241-9.16,4.577-19.742,5.974-27.709C939.606,153.722,945.406,149.055,945.406,149.055Z" transform="translate(-35.396 -83.219)" fill="#fff" stroke="#fff" stroke-width="10"/>
  <g>
    <path d="M614.039,514.7a8.4,8.4,0,0,0-1.4.076L575.52,397.334a110.311,110.311,0,0,0,50.926-85.813h1.631a3.794,3.794,0,0,0,3.781-3.785v-5.259a3.786,3.786,0,0,0-1.706-3.155,3.7,3.7,0,0,0,1.706-3.173l0-5.26a3.832,3.832,0,0,0-3.824-3.783h-1.589c-2.876-33.94-23.839-63.186-54.071-79.57l.039-16.345a32.843,32.843,0,0,0-32.728-32.883l-24.708-.074-18.276-.039c-.039,0-.074,0-.074,0a32.879,32.879,0,0,0-32.805,32.73l-.039,14.567c-32.615,16.119-55.394,46.806-58.079,82.56h-1.665a3.8,3.8,0,0,0-3.745,3.822v5.22a3.86,3.86,0,0,0,1.149,2.681,3.769,3.769,0,0,0-1.149,2.7v5.259a3.8,3.8,0,0,0,3.783,3.785h1.626a110.382,110.382,0,0,0,54.929,88.227L426.878,506.526l-3.353-1.215a1.243,1.243,0,0,0-1.588.744l-13.9,38.392a1.243,1.243,0,0,0,.743,1.587l17.586,6.366a1.242,1.242,0,0,0,1.587-.743l13.9-38.391a1.243,1.243,0,0,0-.743-1.587l-2.655-.962,14.477-45.789v.022H584l17.027,53.84a22.719,22.719,0,1,0,13.015-4.085ZM478.96,190.961a17.406,17.406,0,0,1,5.222-12.446,17.593,17.593,0,0,1,12.451-5.185l.035,0,18.312.036,24.67.078a17.713,17.713,0,0,1,17.632,17.705l-.039,9.536a118.474,118.474,0,0,0-41.584-7.3l-.678,0a117.377,117.377,0,0,0-36.022,5.942ZM456.006,455.188,471.748,405.4a109.19,109.19,0,0,0,43.231,9.226,10.6,10.6,0,0,0,1.1.038A110.242,110.242,0,0,0,564.585,403.5l16.348,51.686Z" transform="translate(-35.396 -83.219)" fill="#fff" stroke="#fff" stroke-miterlimit="10" stroke-width="10"/>
    <g>
      <path d="M419.395,542.747l4.509,1.425a3.8,3.8,0,0,0,4.748-2.468l61.88-195.715a3.8,3.8,0,0,0-2.467-4.75l-4.509-1.425a3.8,3.8,0,0,0-4.753,2.467L416.927,538A3.8,3.8,0,0,0,419.395,542.747Z" transform="translate(-35.396 -83.219)" fill="#fff" stroke="#231f20" stroke-miterlimit="10" stroke-width="3"/>
      <path d="M546.387,345.99l18.2,57.513,16.348,51.686L584,464.95l17.026,53.841,3.82,12,3.442,10.933a3.8,3.8,0,0,0,4.729,2.46l4.5-1.437a3.738,3.738,0,0,0,2.458-4.729l-3.706-11.731-3.633-11.5L575.52,397.334l-17.4-55.052a3.786,3.786,0,0,0-4.729-2.46l-4.542,1.4A3.852,3.852,0,0,0,546.387,345.99Z" transform="translate(-35.396 -83.219)" fill="#fff" stroke="#231f20" stroke-miterlimit="10" stroke-width="3"/>
      <path d="M591.337,537.406a22.7,22.7,0,1,0,22.7-22.7,8.381,8.381,0,0,0-1.4.076,22.422,22.422,0,0,0-11.614,4.009A22.72,22.72,0,0,0,591.337,537.406Z" transform="translate(-35.396 -83.219)" fill="#fff" stroke="#231f20" stroke-miterlimit="10" stroke-width="3"/>
      <circle cx="578.657" cy="454.178" r="11.351" fill="#fff" stroke="#231f20" stroke-miterlimit="10" stroke-width="3"/>
      <path d="M404.527,518.267h40.83a1.24,1.24,0,0,1,1.24,1.24v18.7a1.239,1.239,0,0,1-1.239,1.239H404.527a1.239,1.239,0,0,1-1.239-1.239v-18.7a1.239,1.239,0,0,1,1.239-1.239Z" transform="translate(-252.423 665.045) rotate(-70.087)" fill="#fff" stroke="#231f20" stroke-miterlimit="10" stroke-width="3"/>
      <rect x="417.53" y="371.969" width="138.411" height="9.761" fill="#fff" stroke="#231f20" stroke-miterlimit="10" stroke-width="3"/>
      <path d="M405.4,303.99c0,2.537.076,5.032.3,7.531a110.385,110.385,0,0,0,54.943,88.235,92.427,92.427,0,0,0,11.083,5.637,109.183,109.183,0,0,0,43.247,9.233,10.624,10.624,0,0,0,1.1.038A110.244,110.244,0,0,0,564.585,403.5a102.973,102.973,0,0,0,10.935-6.168,110.312,110.312,0,0,0,50.926-85.813c.229-2.5.306-4.994.306-7.531Z" transform="translate(-35.396 -83.219)" fill="#fff" stroke="#231f20" stroke-miterlimit="10" stroke-width="3"/>
      <path d="M368.684,215.473H592.678a3.785,3.785,0,0,1,3.785,3.785v5.262a3.782,3.782,0,0,1-3.782,3.782h-224a3.784,3.784,0,0,1-3.784-3.784v-5.262A3.782,3.782,0,0,1,368.684,215.473Z" fill="#fff" stroke="#231f20" stroke-miterlimit="10" stroke-width="3"/>
      <g>
        <path d="M463.786,205.492v3.178l15.137.037.037-9.382v-8.365a17.407,17.407,0,0,1,5.222-12.447,17.6,17.6,0,0,1,12.45-5.185l.035,0,18.313.035,24.67.078a17.713,17.713,0,0,1,17.632,17.706l-.039,9.536V208.9l15.133.041v-1.4l.039-16.345a32.843,32.843,0,0,0-32.728-32.883l-24.708-.074-18.276-.039c-.039,0-.074,0-.074,0a32.881,32.881,0,0,0-32.805,32.73Z" transform="translate(-35.396 -83.219)" fill="#fff" stroke="#231f20" stroke-miterlimit="10" stroke-width="3"/>
        <path d="M405.4,295.581l109.576-.453,111.809-.492c0-2.536-.115-5.031-.341-7.529-2.876-33.939-23.839-63.186-54.071-79.57a104.67,104.67,0,0,0-15.133-6.85,118.477,118.477,0,0,0-41.584-7.3l-.678,0a117.367,117.367,0,0,0-36.022,5.942,103.937,103.937,0,0,0-15.174,6.167c-32.614,16.119-55.394,46.805-58.079,82.56C405.48,290.511,405.4,293.045,405.4,295.581Z" transform="translate(-35.396 -83.219)" fill="#fff" stroke="#231f20" stroke-miterlimit="10" stroke-width="3"/>
        <path d="M400.3,291.873v5.22a3.849,3.849,0,0,0,3.821,3.787l110.864-.457,113.129-.49a3.74,3.74,0,0,0,3.747-3.785l0-5.259a3.832,3.832,0,0,0-3.824-3.783h-1.589l-111.47.494-109.271.453h-1.665A3.8,3.8,0,0,0,400.3,291.873Z" transform="translate(-35.396 -83.219)" fill="#fff" stroke="#231f20" stroke-miterlimit="10" stroke-width="3"/>
      </g>
    </g>
  </g>
  <g>
    <path d="M370.071,94.811c-1.947-4.142-5.3-6.473-9.419-6.575-4.132-.1-8.547,2.041-12.438,6.037l-.037.04q.134-1.258.26-2.525a4.74,4.74,0,0,0,.068-.623,2.971,2.971,0,0,0-2.984-2.946H265.551a2.959,2.959,0,0,0-2.907,3.569c2.726,28.291,9.833,52.329,19.427,67.4H244.511c6.576,10.977,18,19.21,30.789,19.491,3.778.824,5.882,2.286,5.882,5.623v.2h48.729v-.2c0-3.319,2.093-4.8,5.855-5.622,12.79-.276,24.221-8.511,30.79-19.492H329a86.243,86.243,0,0,0,5.654-10.55c6.142-7.817,20.07-14.274,28.149-23.367a35.467,35.467,0,0,0,8.164-15.123c.03-.111.055-.231.077-.341C372.333,104.17,371.97,98.859,370.071,94.811Zm-9.612,15.652a19.4,19.4,0,0,1-4.521,8.258c-3.965,4.452-9.74,8.151-14.737,12.019a195.967,195.967,0,0,0,5.151-22.962,30.911,30.911,0,0,1,2.417-6.016,2.215,2.215,0,0,0,.222-.281c1.977-2.331,3.485-3.032,5.755-2.98a5.792,5.792,0,0,1,5.222,3.595A12.938,12.938,0,0,1,360.459,110.463Z" transform="translate(-35.396 -83.219)" fill="#fff" stroke="#fff" stroke-width="10"/>
    <g>
      <path d="M370.071,94.811c-1.947-4.141-5.3-6.472-9.419-6.575-4.132-.1-8.547,2.041-12.438,6.037a32.73,32.73,0,0,0-8.1,14.926.233.233,0,0,1-.025.094c-.435,1.946.32,3.543,1.72,3.595a4.3,4.3,0,0,0,4-3.082,33.763,33.763,0,0,1,2.963-8.045,2.243,2.243,0,0,0,.222-.282c1.977-2.331,3.485-3.032,5.755-2.98a5.792,5.792,0,0,1,5.222,3.595,12.937,12.937,0,0,1,.491,8.368,19.406,19.406,0,0,1-4.522,8.258c-6.289,7.062-17.133,12.228-22.2,19.179-.931,1.273-3.429,9.265-2.75,10.691s2.455,1.605,3.634.094c6.123-7.838,20.092-14.3,28.188-23.414a35.469,35.469,0,0,0,8.164-15.123c.03-.111.055-.231.077-.341C372.333,104.17,371.97,98.859,370.071,94.811Z" transform="translate(-35.396 -83.219)" fill="#fff" stroke="#231f20" stroke-width="3"/>
      <path d="M348.5,91.165a2.971,2.971,0,0,0-2.984-2.946H265.551a2.958,2.958,0,0,0-2.907,3.569c3.061,31.774,11.647,58.195,23.078,72.558h39.634c11.425-14.363,20-40.783,23.081-72.558A4.692,4.692,0,0,0,348.5,91.165Z" transform="translate(-35.396 -83.219)" fill="#fff" stroke="#231f20" stroke-width="3"/>
      <path d="M336.554,178.521H274.517c4.27.794,6.665,2.22,6.665,5.781v.2h48.729v-.2C329.911,180.758,332.3,179.307,336.554,178.521Z" transform="translate(-35.396 -83.219)" fill="#fff" stroke="#231f20" stroke-width="3"/>
      <path d="M366.557,159.188H244.511c6.66,11.118,18.3,19.427,31.283,19.5h59.492C348.27,178.615,359.905,170.306,366.557,159.188Z" transform="translate(-35.396 -83.219)" fill="#fff" stroke="#231f20" stroke-width="3"/>
    </g>
  </g>
  <g>
    <path d="M946.533,141.3l-142.1,14.257c-14.946,1.233-28.418,3.816-37.415,12.247-7.624,7.14-21.329,19.594-28.812,26.888-18.971,18.5,10.717,15.828,20.772,3.517,5.922-7.26,6.389-17.063,21.653-28.815,7.371-5.672,19.434-6.152,33.115-7.281l132.791-13.482Z" transform="translate(-35.396 -83.219)" fill="#fff" stroke="#231f20" stroke-width="3"/>
    <path d="M731,141.3l142.1,14.257c14.948,1.233,28.429,3.816,37.429,12.247,7.616,7.14,21.325,19.594,28.8,26.888,18.971,18.5-10.708,15.828-20.765,3.517-5.918-7.26-6.387-17.063-21.653-28.815-7.369-5.672-19.43-6.152-33.112-7.281L731,148.626Z" transform="translate(-35.396 -83.219)" fill="#fff" stroke="#231f20" stroke-width="3"/>
    <g opacity="0.77">
      <path d="M820.037,184.827c-5.352,10.6-22.867,20.334-50.782,20.7-8.395.1-24.293-3.05-24.165-35.078.546-14.116,2.753-23.652,14.758-27.157,16.681-4.846,41.589-1.027,53.965,3.109,8.145,2.725,14.285,8.628,12.181,18.817C824.361,171.953,823.315,178.348,820.037,184.827Z" transform="translate(-35.396 -83.219)" fill="#fff" stroke="#231f20" stroke-width="3"/>
      <path d="M855.847,184.827c5.36,10.6,22.872,20.334,50.792,20.7,8.393.1,24.289-3.05,24.159-35.078-.542-14.116-2.738-23.652-14.763-27.157-16.668-4.846-41.576-1.027-53.953,3.109-8.154,2.725-14.285,8.628-12.185,18.817C851.524,171.953,852.576,178.348,855.847,184.827Z" transform="translate(-35.396 -83.219)" fill="#fff" stroke="#231f20" stroke-width="3"/>
    </g>
    <path d="M946.525,141.015c-30.351-5.222-60.792-3.4-90.866,2.607-4.385.879-10.348.591-17.4.62s-12.507.379-17.4-.62c-30.063-6.1-60.529-7.822-90.863-2.607a26.2,26.2,0,0,0,1.123,8.041s5.8,4.667,6.98,11.38c3.079,17.639,5.873,48.108,29.724,47.546,19.092-.753,44.758-3.071,54.964-21.892a70.645,70.645,0,0,0,6.8-20.059c1.7-10.706,15.349-10.377,17.362,0a70.186,70.186,0,0,0,6.8,20.059c10.2,18.819,35.848,21.139,54.96,21.892,23.836.561,26.632-29.907,29.724-47.546,1.182-6.713,6.982-11.38,6.982-11.38A26.209,26.209,0,0,0,946.525,141.015ZM822.532,165.833c-1.253,6.246-1.931,12.229-4.731,18.2-7.618,16.212-30.727,19.195-46.164,19.831-17.27.719-23.337-17.66-23.749-32.346-.241-9.955,1.287-21.9,12.58-24.887,15.763-4.182,34.561-2.055,50.039,2.261C818.125,151.014,824.143,157.442,822.532,165.833Zm82.347,38.027c-15.426-.636-38.552-3.611-46.168-19.831-2.8-5.967-3.478-11.95-4.733-18.2-1.607-8.391,4.413-14.827,12.031-16.946,15.475-4.316,34.271-6.446,50.043-2.261,11.289,3,12.829,14.932,12.569,24.887C928.226,186.2,922.149,204.579,904.879,203.859Z" transform="translate(-35.396 -83.219)" fill="#fff" stroke="#231f20" stroke-width="3"/>
  </g>
  <g>
    <g>
      <g>
        <circle cx="888.747" cy="454.893" r="37.402" transform="translate(255.75 1171.469) rotate(-80.338)" fill="#fff" stroke="#231f20" stroke-width="3"/>
        <polyline points="862.054 335.761 663.576 301.971 651.203 374.653 849.68 408.443" fill="#fff" stroke="#231f20" stroke-width="3"/>
        <g>
          <circle cx="694.676" cy="421.853" r="37.402" transform="translate(126.822 952.656) rotate(-80.338)" fill="#fff" stroke="#231f20" stroke-width="3"/>
          <path d="M688.147,450.937l-4.484-1.055a25.081,25.081,0,0,1-18.644-30.124l2.121-9.012A25.081,25.081,0,0,1,697.262,392.1l4.484,1.055a25.08,25.08,0,0,1,18.644,30.124l-2.121,9.012A25.08,25.08,0,0,1,688.147,450.937Z" transform="translate(-35.396 -83.219)" fill="#fff" stroke="#231f20" stroke-width="3"/>
          <path d="M689.357,442.96l-3.227-.759a18.552,18.552,0,0,1-13.787-22.281l1.527-6.491a18.549,18.549,0,0,1,22.275-13.792l3.227.759a18.551,18.551,0,0,1,13.795,22.28l-1.527,6.491A18.554,18.554,0,0,1,689.357,442.96Z" transform="translate(-35.396 -83.219)" fill="#fff" stroke="#231f20" stroke-width="3"/>
          <path d="M691.018,432.342l-1.632-.384a10.258,10.258,0,0,1-7.628-12.318l.774-3.289a10.258,10.258,0,0,1,12.321-7.624l1.632.384a10.258,10.258,0,0,1,7.629,12.319l-.774,3.289A10.258,10.258,0,0,1,691.018,432.342Z" transform="translate(-35.396 -83.219)" fill="#fff" stroke="#231f20" stroke-width="3"/>
          <path d="M688.955,415.228h8.1a.54.54,0,0,1,.54.54V424.7a.541.541,0,0,1-.541.541h-8.1a.541.541,0,0,1-.541-.541v-8.933a.54.54,0,0,1,.54-.54Z" transform="translate(79.293 -230.791) rotate(13.242)" fill="#fff" stroke="#231f20" stroke-width="3"/>
        </g>
      </g>
      <path d="M724.093,447.483l11.052,1.791c2.165.351,4.8,1.144,7.01.817,1.923-.283,2.582-1.064,3.872-2.365a14.058,14.058,0,0,1,2.3-2.372c2.363-1.684,4.119-1.308,6.951-.91,14.252,2.007,28.458,4.449,42.679,6.672,1.574.246,2.252-2.163.665-2.411-14.532-2.272-29.053-4.837-43.627-6.82-3.619-.492-6.748-.621-9.424,2.165-.771.8-1.124,2.124-2.023,2.777-2.112,1.536-5.443.4-7.732.034-3.686-.587-7.368-1.194-11.052-1.791-1.574-.255-2.251,2.154-.665,2.411Z" transform="translate(-35.396 -83.219)" fill="#231f20"/>
      <path d="M730.786,409.506c8.588-5.585,18.809.819,27.448,3.1,8.556,2.256,17.381,3.495,26.091,5l56.656,9.808c1.574.272,2.249-2.136.665-2.411L779.129,414.18c-9.794-1.7-19.4-3.432-28.809-6.722-6.918-2.42-14.2-4.4-20.8-.11-1.344.874-.092,3.039,1.262,2.159Z" transform="translate(-35.396 -83.219)" fill="#231f20"/>
      <path d="M925.672,462.4a78.9,78.9,0,0,1-16.152-3.574c-4.691-1.463-8.857-1.246-13.719-1.153-10.5.2-21.206-2.029-31.591-3.352-1.592-.2-1.577,2.3,0,2.5,10.381,1.322,21.1,3.554,31.591,3.352a46.1,46.1,0,0,1,15.684,1.929,69.759,69.759,0,0,0,14.187,2.8c1.6.154,1.59-2.347,0-2.5Z" transform="translate(-35.396 -83.219)" fill="#231f20"/>
      <path d="M794.035,463.8l18.879,3.9c1.57.325,2.242-2.085.665-2.411l-18.879-3.9c-1.57-.325-2.242,2.085-.665,2.411Z" transform="translate(-35.396 -83.219)" fill="#231f20"/>
      <path d="M860.718,431.284l5.66.964c1.574.268,2.25-2.141.665-2.411l-5.66-.964c-1.574-.268-2.25,2.141-.665,2.411Z" transform="translate(-35.396 -83.219)" fill="#231f20"/>
    </g>
    <g>
      <g>
        <circle cx="886.696" cy="382.493" r="37.402" transform="translate(325.416 1109.198) rotate(-80.338)" fill="#fff" stroke="#231f20" stroke-width="3"/>
        <polyline points="860.003 263.361 661.526 229.571 649.152 302.253 847.629 336.043" fill="#fff" stroke="#231f20" stroke-width="3"/>
        <g>
          <circle cx="692.625" cy="349.454" r="37.402" transform="translate(196.488 890.386) rotate(-80.338)" fill="#fff" stroke="#231f20" stroke-width="3"/>
          <path d="M686.1,378.538l-4.484-1.055a25.081,25.081,0,0,1-18.644-30.124l2.121-9.012A25.081,25.081,0,0,1,695.211,319.7l4.484,1.055a25.08,25.08,0,0,1,18.644,30.124l-2.121,9.012A25.08,25.08,0,0,1,686.1,378.538Z" transform="translate(-35.396 -83.219)" fill="#fff" stroke="#231f20" stroke-width="3"/>
          <path d="M687.307,370.56l-3.227-.759a18.552,18.552,0,0,1-13.787-22.281l1.527-6.491A18.549,18.549,0,0,1,694.1,327.237l3.227.759a18.551,18.551,0,0,1,13.795,22.28l-1.527,6.491A18.554,18.554,0,0,1,687.307,370.56Z" transform="translate(-35.396 -83.219)" fill="#fff" stroke="#231f20" stroke-width="3"/>
          <path d="M688.967,359.943l-1.632-.384a10.258,10.258,0,0,1-7.628-12.318l.774-3.289a10.258,10.258,0,0,1,12.321-7.624l1.632.384a10.258,10.258,0,0,1,7.629,12.319l-.774,3.289A10.258,10.258,0,0,1,688.967,359.943Z" transform="translate(-35.396 -83.219)" fill="#fff" stroke="#231f20" stroke-width="3"/>
          <path d="M686.9,342.828h8.1a.54.54,0,0,1,.54.54V352.3a.541.541,0,0,1-.541.541h-8.1a.541.541,0,0,1-.541-.541v-8.933A.54.54,0,0,1,686.9,342.828Z" transform="translate(62.654 -232.246) rotate(13.242)" fill="#fff" stroke="#231f20" stroke-width="3"/>
        </g>
      </g>
      <path d="M722.043,375.083l11.052,1.791c2.165.351,4.8,1.144,7.01.817,1.923-.283,2.582-1.064,3.872-2.365a14.058,14.058,0,0,1,2.3-2.372c2.363-1.684,4.119-1.308,6.951-.91,14.252,2.007,28.458,4.449,42.679,6.672,1.574.246,2.252-2.163.665-2.411-14.532-2.272-29.053-4.837-43.627-6.82-3.619-.492-6.748-.621-9.424,2.165-.771.8-1.124,2.124-2.023,2.777-2.112,1.536-5.443.4-7.732.034-3.686-.587-7.368-1.194-11.052-1.791-1.574-.255-2.251,2.154-.665,2.411Z" transform="translate(-35.396 -83.219)" fill="#231f20"/>
      <path d="M728.735,337.107c8.588-5.585,18.809.819,27.448,3.1,8.556,2.256,17.381,3.495,26.091,5l56.656,9.808c1.574.272,2.249-2.136.665-2.411L777.078,341.78c-9.794-1.7-19.4-3.432-28.809-6.722-6.918-2.42-14.2-4.4-20.8-.11-1.344.874-.092,3.039,1.262,2.159Z" transform="translate(-35.396 -83.219)" fill="#231f20"/>
      <path d="M923.621,390a78.9,78.9,0,0,1-16.152-3.574c-4.691-1.463-8.857-1.246-13.719-1.153-10.5.2-21.206-2.029-31.591-3.352-1.592-.2-1.577,2.3,0,2.5,10.381,1.322,21.1,3.554,31.591,3.352a46.1,46.1,0,0,1,15.684,1.929,69.759,69.759,0,0,0,14.187,2.8c1.6.154,1.59-2.347,0-2.5Z" transform="translate(-35.396 -83.219)" fill="#231f20"/>
      <path d="M791.984,391.4l18.879,3.9c1.57.325,2.242-2.085.665-2.411l-18.879-3.9c-1.57-.325-2.242,2.085-.665,2.411Z" transform="translate(-35.396 -83.219)" fill="#231f20"/>
      <path d="M858.667,358.885l5.66.964c1.574.268,2.25-2.141.665-2.411l-5.66-.964c-1.574-.268-2.25,2.141-.665,2.411Z" transform="translate(-35.396 -83.219)" fill="#231f20"/>
    </g>
    <g>
      <g>
        <circle cx="951.301" cy="427.375" r="37.402" transform="matrix(0.168, -0.986, 0.986, 0.168, 334.934, 1210.236)" fill="#fff" stroke="#231f20" stroke-width="3"/>
        <polyline points="924.609 308.243 726.131 274.453 713.757 347.135 912.235 380.925" fill="#fff" stroke="#231f20" stroke-width="3"/>
        <g>
          <circle cx="757.231" cy="394.335" r="37.402" transform="translate(206.006 991.424) rotate(-80.338)" fill="#fff" stroke="#231f20" stroke-width="3"/>
          <path d="M750.7,423.419l-4.484-1.055a25.081,25.081,0,0,1-18.644-30.124l2.121-9.012a25.081,25.081,0,0,1,30.122-18.649l4.484,1.055a25.08,25.08,0,0,1,18.644,30.124l-2.121,9.012A25.08,25.08,0,0,1,750.7,423.419Z" transform="translate(-35.396 -83.219)" fill="#fff" stroke="#231f20" stroke-width="3"/>
          <path d="M751.912,415.441l-3.227-.759A18.552,18.552,0,0,1,734.9,392.4l1.527-6.491A18.549,18.549,0,0,1,758.7,372.118l3.227.759a18.551,18.551,0,0,1,13.795,22.28l-1.527,6.491A18.554,18.554,0,0,1,751.912,415.441Z" transform="translate(-35.396 -83.219)" fill="#fff" stroke="#231f20" stroke-width="3"/>
          <path d="M753.572,404.824l-1.632-.384a10.258,10.258,0,0,1-7.628-12.318l.774-3.289a10.258,10.258,0,0,1,12.321-7.624l1.632.384a10.258,10.258,0,0,1,7.629,12.319l-.774,3.289A10.258,10.258,0,0,1,753.572,404.824Z" transform="translate(-35.396 -83.219)" fill="#fff" stroke="#231f20" stroke-width="3"/>
          <path d="M751.509,387.71h8.1a.54.54,0,0,1,.54.54v8.933a.541.541,0,0,1-.541.541h-8.1a.541.541,0,0,1-.541-.541V388.25A.54.54,0,0,1,751.509,387.71Z" transform="translate(74.653 -245.852) rotate(13.242)" fill="#fff" stroke="#231f20" stroke-width="3"/>
        </g>
      </g>
      <path d="M786.648,419.964l11.052,1.791c2.165.351,4.8,1.144,7.01.817,1.923-.283,2.582-1.064,3.872-2.365a14.058,14.058,0,0,1,2.3-2.372c2.363-1.684,4.119-1.308,6.951-.91,14.252,2.007,28.458,4.449,42.679,6.672,1.574.246,2.252-2.163.665-2.411-14.532-2.272-29.053-4.837-43.627-6.82-3.619-.492-6.748-.621-9.424,2.165-.771.8-1.124,2.124-2.023,2.777-2.112,1.536-5.443.4-7.732.034-3.686-.587-7.368-1.194-11.052-1.791-1.574-.255-2.251,2.154-.665,2.411Z" transform="translate(-35.396 -83.219)" fill="#231f20"/>
      <path d="M793.34,381.988c8.588-5.585,18.809.819,27.448,3.1,8.556,2.256,17.381,3.495,26.091,5l56.656,9.808c1.574.272,2.249-2.136.665-2.411l-62.517-10.823c-9.794-1.7-19.4-3.432-28.809-6.722-6.918-2.42-14.2-4.4-20.8-.11-1.344.874-.092,3.039,1.262,2.159Z" transform="translate(-35.396 -83.219)" fill="#231f20"/>
      <path d="M988.226,434.878a78.9,78.9,0,0,1-16.152-3.574c-4.691-1.463-8.857-1.246-13.719-1.153-10.5.2-21.206-2.029-31.591-3.352-1.592-.2-1.577,2.3,0,2.5,10.381,1.322,21.1,3.554,31.591,3.352a46.1,46.1,0,0,1,15.684,1.929,69.759,69.759,0,0,0,14.187,2.8c1.6.154,1.59-2.347,0-2.5Z" transform="translate(-35.396 -83.219)" fill="#231f20"/>
      <path d="M856.59,436.282l18.879,3.9c1.57.325,2.242-2.085.665-2.411l-18.879-3.9c-1.57-.325-2.242,2.085-.665,2.411Z" transform="translate(-35.396 -83.219)" fill="#231f20"/>
      <path d="M923.273,403.766l5.66.964c1.574.268,2.25-2.141.665-2.411l-5.66-.964c-1.574-.268-2.25,2.141-.665,2.411Z" transform="translate(-35.396 -83.219)" fill="#231f20"/>
    </g>
  </g>
</svg>
