<svg xmlns="http://www.w3.org/2000/svg" viewBox="0 0 834.854 483.07">
  <title>4-1</title>
  <g>
    <g>
      <rect x="504.254" y="42.364" width="19.867" height="126.608" transform="translate(-87.007 48.256) rotate(-9.697)" fill="#fff" stroke="#231f20" stroke-miterlimit="10" stroke-width="3"/>
      <path d="M534.692,150.7l-22.506,3.846A33.14,33.14,0,0,0,485.1,192.795l2.5,14.612h0a89.165,89.165,0,0,0,14.723,35.94l9.814,14.091a15.969,15.969,0,0,0,15.794,6.614l14.139-2.416,14.139-2.416a15.969,15.969,0,0,0,12.7-11.483l4.578-16.55a89.165,89.165,0,0,0,1.953-38.79h0l-2.5-14.612A33.14,33.14,0,0,0,534.692,150.7Z" transform="translate(-76.555 -39.865)" fill="#fff" stroke="#231f20" stroke-miterlimit="10" stroke-width="3"/>
      <path d="M531.451,206.66h0a10.838,10.838,0,0,1-12.509-8.858l-8.866-51.885,21.366-3.651,8.866,51.885A10.838,10.838,0,0,1,531.451,206.66Z" transform="translate(-76.555 -39.865)" fill="#fff" stroke="#231f20" stroke-miterlimit="10" stroke-width="3"/>
    </g>
    <g>
      <path d="M710.467,424.136a67.383,67.383,0,0,0-12.607-20.057,1.681,1.681,0,0,0,.14-1.516,5.056,5.056,0,0,0-1.382-2.135,5.176,5.176,0,0,0-2.135-1.35,1.741,1.741,0,0,0-1.512.117,68.146,68.146,0,0,0-96.259,96.246s-.012.007-.016.011a1.593,1.593,0,0,0-.251,1.664,5.178,5.178,0,0,0,1.351,2.136,5.462,5.462,0,0,0,2.135,1.35,1.621,1.621,0,0,0,1.664-.22c.01-.01.014-.023.024-.033a68.168,68.168,0,0,0,108.848-76.212Z" transform="translate(-76.555 -39.865)" fill="#fff" stroke="#fff" stroke-linecap="round" stroke-linejoin="round" stroke-width="10"/>
      <g>
        <path d="M698,402.563a5.058,5.058,0,0,0-1.382-2.135,5.177,5.177,0,0,0-2.135-1.35,1.38,1.38,0,0,0-1.884,1.884,5.176,5.176,0,0,0,1.35,2.135,5.057,5.057,0,0,0,2.135,1.382A1.418,1.418,0,0,0,698,402.563Z" transform="translate(-76.555 -39.865)" fill="#fff" stroke="#231f20" stroke-linecap="round" stroke-linejoin="round" stroke-width="3"/>
        <path d="M584.135,424.136a68.462,68.462,0,1,0,14.979-22.547A67.625,67.625,0,0,0,584.135,424.136Z" transform="translate(-76.555 -39.865)" fill="#fff" stroke="#231f20" stroke-linecap="round" stroke-linejoin="round" stroke-width="3"/>
        <path d="M611.455,413.93A88.189,88.189,0,0,0,595.5,435.5a71.969,71.969,0,0,0-7.631,22.987,52.755,52.755,0,0,0,1.068,21.73,39.084,39.084,0,0,0,27.917,27.917,52.621,52.621,0,0,0,21.7,1.068,73.014,73.014,0,0,0,23.018-7.631A90.561,90.561,0,0,0,699.1,464.049a71.969,71.969,0,0,0,7.631-23.018,51.918,51.918,0,0,0-1.068-21.7,39.084,39.084,0,0,0-27.917-27.917,51.919,51.919,0,0,0-21.7-1.068,71.97,71.97,0,0,0-23.018,7.631A88.184,88.184,0,0,0,611.455,413.93Z" transform="translate(-76.555 -39.865)" fill="#fff" stroke="#231f20" stroke-linecap="round" stroke-linejoin="round" stroke-width="3"/>
        <path d="M706.73,441.031a51.918,51.918,0,0,0-1.068-21.7,39.46,39.46,0,0,0-10.174-17.742,446.64,446.64,0,0,1-96.374,96.374,39.46,39.46,0,0,0,17.742,10.174,52.621,52.621,0,0,0,21.7,1.068,73.014,73.014,0,0,0,23.018-7.631A90.561,90.561,0,0,0,699.1,464.049,71.969,71.969,0,0,0,706.73,441.031Z" transform="translate(-76.555 -39.865)" fill="#fff" stroke="#231f20" stroke-linecap="round" stroke-linejoin="round" stroke-width="3"/>
        <path d="M598.36,495.231a1.622,1.622,0,0,0-1.664.22,1.593,1.593,0,0,0-.251,1.664,5.178,5.178,0,0,0,1.35,2.135,5.457,5.457,0,0,0,2.135,1.35,1.622,1.622,0,0,0,1.664-.22,1.594,1.594,0,0,0,.251-1.664,5.178,5.178,0,0,0-1.35-2.135A5.457,5.457,0,0,0,598.36,495.231Z" transform="translate(-76.555 -39.865)" fill="#fff" stroke="#231f20" stroke-linecap="round" stroke-linejoin="round" stroke-width="3"/>
      </g>
    </g>
    <g>
      <path d="M906.169,131.409q-1.483-19.754-12.038-34.774-8.944-12.768-25.177-21.1-15.9-8.162-37.051-11.233-21.11-3.065-38.677.238Q775.3,67.913,763.051,77.6,748.661,89,741.66,107.525a67.293,67.293,0,0,0-4.284,16.978l-.675,4.649a8.421,8.421,0,0,0,7.152,9.581l-.27,1.859,2.587.376c0,.011.017.026.02.038l-.331-.048L744.1,186.087l-1.78,48.262-1.647,43.142a6.275,6.275,0,0,0,1.392,4.209,6.175,6.175,0,0,0,3.872,2.13l2.3.334-.471,3.242,101.436,14.727.471-3.242,2.219.322a5.97,5.97,0,0,0,4.317-.941,5.763,5.763,0,0,0,2.532-3.64l10.69-41.829,11.932-46.788L892.6,162.262l-.321-.047c.006-.011.028-.019.03-.031l2.615.38.27-1.859a8.106,8.106,0,0,0,6.243-1.586,8.237,8.237,0,0,0,3.3-5.572l.675-4.649A65.971,65.971,0,0,0,906.169,131.409Zm-9.054,16.049-.439,3.021L745.338,128.507l.439-3.021a58.543,58.543,0,0,1,3.77-14.8q6.249-16.614,18.842-26.533,10.77-8.521,27.1-11.451,15.921-2.87,35.211-.069,19.329,2.806,33.738,10.079,14.824,7.413,22.758,18.689,9.214,13.085,10.519,30.8A58.512,58.512,0,0,1,897.115,147.458Z" transform="translate(-76.555 -39.865)" fill="#fff" stroke="#fff" stroke-linecap="round" stroke-linejoin="round" stroke-width="10"/>
      <g>
        <g>
          <path d="M881.367,206.016,892.6,162.262l-146.737-21.3L744.1,186.087q73.88,16.817,137.268,19.929m-29.472,93.2a5.972,5.972,0,0,0,4.318-.941,5.763,5.763,0,0,0,2.532-3.639l10.69-41.829q-62.286-1.513-127.115-18.455l-1.647,43.142a6.272,6.272,0,0,0,1.392,4.209,6.178,6.178,0,0,0,3.872,2.13Z" transform="translate(-76.555 -39.865)" fill="#fff" stroke="#231f20" stroke-linecap="round" stroke-linejoin="round" stroke-width="3"/>
          <path d="M869.434,252.8l11.932-46.788Q817.979,202.9,744.1,186.087l-1.78,48.262Q807.148,251.291,869.434,252.8Z" transform="translate(-76.555 -39.865)" fill="#fff" stroke="#231f20" stroke-linecap="round" stroke-linejoin="round" stroke-width="3"/>
        </g>
        <path d="M745.338,128.507l-1.755,12.085,151.339,21.972,1.755-12.085Z" transform="translate(-76.555 -39.865)" fill="#fff" stroke="#231f20" stroke-linecap="round" stroke-linejoin="round" stroke-width="3"/>
        <path d="M849.206,302.134l.471-3.242L748.24,284.165l-.471,3.242Z" transform="translate(-76.555 -39.865)" fill="#fff" stroke="#231f20" stroke-linecap="round" stroke-linejoin="round" stroke-width="3"/>
        <path d="M795.483,72.7q15.921-2.87,35.211-.069L831.9,64.3q-21.111-3.065-38.677.238Q775.3,67.912,763.051,77.6q-14.39,11.4-21.391,29.92a67.279,67.279,0,0,0-4.284,16.979l-.675,4.648a8.419,8.419,0,0,0,7.152,9.582l1.923-13.247a58.53,58.53,0,0,1,3.77-14.8q6.249-16.614,18.842-26.533Q779.158,75.632,795.483,72.7Z" transform="translate(-76.555 -39.865)" fill="#fff" stroke="#231f20" stroke-linecap="round" stroke-linejoin="round" stroke-width="3"/>
        <path d="M831.9,64.3l-1.209,8.328q19.329,2.806,33.738,10.079,14.824,7.413,22.758,18.69,9.214,13.085,10.519,30.8a58.531,58.531,0,0,1-.594,15.26L895.192,160.7a8.108,8.108,0,0,0,6.242-1.586,8.237,8.237,0,0,0,3.3-5.572l.675-4.648a65.983,65.983,0,0,0,.759-17.49q-1.483-19.754-12.038-34.773-8.944-12.768-25.177-21.1Q853.053,67.375,831.9,64.3Z" transform="translate(-76.555 -39.865)" fill="#fff" stroke="#231f20" stroke-linecap="round" stroke-linejoin="round" stroke-width="3"/>
      </g>
    </g>
    <path d="M417.071,476.851l-79.98-98.516a33.079,33.079,0,0,0-41.947-43.054l14.423,17.765a3.83,3.83,0,0,1-.558,5.371l-11.208,9.1a3.83,3.83,0,0,1-5.371-.558l-14.423-17.765a33.079,33.079,0,0,0,33.516,49.9l79.98,98.516c5.372,6.617,15.451,7.335,22.511,1.6S422.443,483.469,417.071,476.851Z" transform="translate(-76.555 -39.865)" fill="#fff" stroke="#231f20" stroke-linecap="round" stroke-linejoin="round" stroke-width="3"/>
    <g>
      <rect x="61.045" y="311.306" width="120.085" height="14.631" transform="translate(383.654 313.083) rotate(116.589)" fill="#fff" stroke="#221f1f" stroke-miterlimit="10" stroke-width="3"/>
      <polygon points="31.144 336.71 22.08 332.173 15.229 328.744 6.166 324.208 1.685 347.878 4.858 349.466 11.709 352.895 14.882 354.483 31.144 336.71" fill="#fff" stroke="#221f1f" stroke-miterlimit="10" stroke-width="3"/>
      <rect x="116.917" y="205.445" width="101.449" height="40.326" rx="12" ry="12" transform="translate(367.868 136.809) rotate(116.589)" fill="#fff" stroke="#221f1f" stroke-miterlimit="10" stroke-width="3"/>
    </g>
  </g>
</svg>
