<svg xmlns="http://www.w3.org/2000/svg" viewBox="0 0 962.152 484.137">
  <title>www</title>
  <g>
    <path d="M764.9,388.45l-2.386,1.953.015-6.054-2.923,4.727-.927-2.416a11.337,11.337,0,0,0-.676,7.017c.071.045.143.08.213.123q-9.509,27.761-21.659,33.469c.085-.747.173-1.492.241-2.25q.437-4.829.405-9.455a71.943,71.943,0,0,0-6.863-30.4,68.86,68.86,0,0,0-5.238-9.024q-1.41-2.051-2.99-4.034-15.307-19.386-37.573-20.173l.037-.406a205.336,205.336,0,0,0-47.17,9.029q-2.778.853-5.481,1.8-7.17,2.379-14.354,5.37-2.8,1.1-5.569,2.319-23.475,9.863-43.409,11.333-5.987-5.884-12.354-17.323a8.737,8.737,0,0,0,2.837-.944,11.787,11.787,0,0,0,4.105-3.849,6.078,6.078,0,0,0-4.6-2.737,11.5,11.5,0,0,0-3.213.015q-.489.093-1.079.224a7.39,7.39,0,0,0-1.387.353c-.064.02-.124.042-.187.062-.054-.091-.1-.184-.159-.274l1.743-4.8-2.582,1.829a7.364,7.364,0,0,0,.372-1.825,13.436,13.436,0,0,0-.807-5.555,6.916,6.916,0,0,0-4.912,2.747,10.693,10.693,0,0,0-1.3,1.866q-.762-.319-1.534-.575l-.663-3.736L541.428,350a22.922,22.922,0,0,0-13.405,1.348q-22.106,9.916-31.4,18.568a12.6,12.6,0,0,0-1.967.669,9.975,9.975,0,0,0-6.006,7.6q-1.03,5.512,2.639,11.08a19.614,19.614,0,0,0,9.735,7.713q6.125,2.4,11.152.191a10.025,10.025,0,0,0,4.106-3.146,34.641,34.641,0,0,0,4.273-2.192q11.34-6.87,21.917-13.441c.133-.083.257-.167.388-.25l5.958,76.61q-.288,9.695-.755,22.375a6.7,6.7,0,0,0-1.938,4.243,7.394,7.394,0,0,0,1.308,4.987l-3.593,36.291-.018,0-3.539,4.753,7.183.65,3.539-4.753,8.67-32.518,5.988-18.727q1.419.644,2.85,1.261l.925,1.885.072.305q.569,5.827,1.136,10.012a5.022,5.022,0,0,0-.977,2.551,4.944,4.944,0,0,0,1.973,4.61l2.976,24.74-2.479,3.338,5.087.46,2.495-3.36,2.233-28.528a8.952,8.952,0,0,1,.026-2.488l.165-2.375a45.487,45.487,0,0,0,1.489-5.347,196.988,196.988,0,0,0,22.291,6.027q3.673.768,7.409,1.438a39.068,39.068,0,0,0,5.756,4.09q10.964,6.535,26.575,8.612l-1.749,6.4,5.7,1.211,1.228-4.471-.339,5.942,5.806.484.5-8.689q3.176.072,6.192-.078l1.083,6.524,5.814-.5-1.109-6.536c.215-.027.43-.053.643-.082l2.708,7.149,5.559-1.3-2.573-6.89q1.792-.412,3.514-.922l2.912,5.461,1.244-.437,2.306,3.285-9.935,26.789-2.487,3.313,5.194.47,2.558-3.41-.03,0,13.873-23.8a3.18,3.18,0,0,0,2.765-1.98,2.866,2.866,0,0,0,.232-.891,7.256,7.256,0,0,1-2.032-5.614l.4-.174-.35-.534a14.285,14.285,0,0,1,.5-2.479q2.9-6.884,4.392-10.45c.116-.271.241-.545.375-.82,2.3,2.038,4.684,4.032,7.172,5.967l10.354,7.2L716.5,537.56l-3.269,4.4,6.734.609,3.3-4.447-.119-.011.142-.009,7.5-38.146a4.186,4.186,0,0,0,2.662-3.646,3.275,3.275,0,0,0-.1-1.114,22.257,22.257,0,0,1-9.374-9.44,24.441,24.441,0,0,1-2.684-13.743,22.311,22.311,0,0,1,2.368-8.091,49.671,49.671,0,0,1,4.645-7.026q4.473-5.87,5.383-15.229a81.888,81.888,0,0,0,1.938-8.162q15.621-4.432,25.469-38.49c.232.055.463.112.7.148A13.284,13.284,0,0,0,764.9,388.45Z" transform="translate(-28.737 -117.733)" fill="#fff" stroke="#fff" stroke-miterlimit="10" stroke-width="10"/>
    <g>
      <g>
        <path d="M733.154,428.284l.322,5.557q17.376-2.739,28.154-40.5l-3.074-.379Q747.5,425.129,733.154,428.284Z" transform="translate(-28.737 -117.733)" fill="#fff" stroke="#231f20" stroke-miterlimit="10" stroke-width="3"/>
        <path d="M759.663,389.136l-.912-2.422a11.338,11.338,0,0,0-.72,7.012,9.745,9.745,0,0,0,3.783,1.512,13.28,13.28,0,0,0,3.145-6.7l-2.4,1.937.054-6.053Z" transform="translate(-28.737 -117.733)" fill="#fff" stroke="#231f20" stroke-miterlimit="10" stroke-width="3"/>
      </g>
      <g>
        <path d="M581.91,486.831a8.951,8.951,0,0,0-.026,2.487l-2.232,28.528-4.839,1.753-3.24-26.932a4.945,4.945,0,0,1-1.973-4.61,5.026,5.026,0,0,1,.978-2.551q-.568-4.184-1.136-10.012l-.072-.305L565,466.28l1.868-.279,16.471-15.29,1.1,17.029a42.3,42.3,0,0,1-2.359,16.716Z" transform="translate(-28.737 -117.733)" fill="#fff" stroke="#231f20" stroke-miterlimit="10" stroke-width="3"/>
        <path d="M572.07,520.746l2.495-3.359,5.087.46-2.495,3.359Z" transform="translate(-28.737 -117.733)" fill="#fff" stroke="#231f20" stroke-miterlimit="10" stroke-width="3"/>
        <path d="M677.106,484.18l-2.34-9.994,27.225,9.458a21.5,21.5,0,0,0-1.881,3.429q-1.488,3.566-4.392,10.45-1.625,5.631,1.485,8.8a2.859,2.859,0,0,1-.233.891,3.179,3.179,0,0,1-2.764,1.98l-13.979,23.978-5.653.857,10.458-28.2L681.08,500.2A33.824,33.824,0,0,1,677.106,484.18Z" transform="translate(-28.737 -117.733)" fill="#fff" stroke="#231f20" stroke-miterlimit="10" stroke-width="3"/>
        <path d="M675.168,532.523l-2.559,3.41,5.194.47,2.559-3.41Z" transform="translate(-28.737 -117.733)" fill="#fff" stroke="#231f20" stroke-miterlimit="10" stroke-width="3"/>
        <path d="M681.347,490.9l-5.322,1.85,5.457,10.231,5.367-1.887Z" transform="translate(-28.737 -117.733)" fill="#fff" stroke="#231f20" stroke-miterlimit="10" stroke-width="3"/>
        <path d="M669.826,506.1l-1.868-11.011-5.773.5,1.827,11.007Z" transform="translate(-28.737 -117.733)" fill="#fff" stroke="#231f20" stroke-miterlimit="10" stroke-width="3"/>
        <path d="M646.78,494.935l-2.935,10.74,5.7,1.211,2.928-10.658Z" transform="translate(-28.737 -117.733)" fill="#fff" stroke="#231f20" stroke-miterlimit="10" stroke-width="3"/>
        <path d="M695.572,500.535l-6.434-9.828-5.152,2.234,6.434,9.828Z" transform="translate(-28.737 -117.733)" fill="#fff" stroke="#231f20" stroke-miterlimit="10" stroke-width="3"/>
        <path d="M677.628,505.335l-3.985-10.67L668.04,496l4.029,10.633Z" transform="translate(-28.737 -117.733)" fill="#fff" stroke="#231f20" stroke-miterlimit="10" stroke-width="3"/>
        <path d="M656.241,508.841l.63-11.03-5.81-.444-.626,10.989Z" transform="translate(-28.737 -117.733)" fill="#fff" stroke="#231f20" stroke-miterlimit="10" stroke-width="3"/>
        <path d="M653.806,457.073q-18.464-1.67-32.055,3.4-13.673,5.063-14.473,13.91t11.741,16.281q12.461,7.428,30.924,9.1t32.1-3.4q13.632-5.067,14.432-13.913t-11.7-16.278Q672.269,458.743,653.806,457.073Z" transform="translate(-28.737 -117.733)" fill="#fff" stroke="#231f20" stroke-miterlimit="10" stroke-width="3"/>
        <g>
          <path d="M668.187,401.22q-21.832-1.975-33.006-11.414-11.093-9.431-5.078-20.751a27.838,27.838,0,0,1,7.234-8.51q-2.777.853-5.481,1.8-7.17,2.379-14.355,5.37-2.8,1.1-5.569,2.319-23.475,9.863-43.41,11.333-7.129-7.006-14.795-21.876L542.7,376.939l6.752,86.811a189.652,189.652,0,0,0,56.405,21.386,319.572,319.572,0,0,0,70.331,6.281q20.067-2.03,36.575-16.738a75.765,75.765,0,0,0,6.161-6.152q15.445-17.422,17.806-43.515.437-4.829.405-9.455a71.954,71.954,0,0,0-6.864-30.4q-7.08,6.805-20.668,11.386A99.468,99.468,0,0,1,668.187,401.22Z" transform="translate(-28.737 -117.733)" fill="#fff" stroke="#231f20" stroke-miterlimit="10" stroke-width="3"/>
          <path d="M684.47,351.922l.037-.406a205.335,205.335,0,0,0-47.17,9.029,27.838,27.838,0,0,0-7.234,8.51q-6.015,11.32,5.078,20.751,11.174,9.439,33.006,11.414a99.468,99.468,0,0,0,41.417-4.681q13.588-4.58,20.668-11.386a68.92,68.92,0,0,0-5.238-9.024q-1.41-2.05-2.99-4.034Q706.736,352.709,684.47,351.922Z" transform="translate(-28.737 -117.733)" fill="#fff" stroke="#231f20" stroke-miterlimit="10" stroke-width="3"/>
        </g>
        <path d="M713.165,541.956l3.3-4.447,6.734.609-3.3,4.447Z" transform="translate(-28.737 -117.733)" fill="#fff" stroke="#231f20" stroke-miterlimit="10" stroke-width="3"/>
        <path d="M686.429,471.807a136.074,136.074,0,0,0,21.227,20.412l10.354,7.2-1.617,39.129,6.832-.446,7.5-38.146a4.187,4.187,0,0,0,2.662-3.646,3.265,3.265,0,0,0-.1-1.114,22.257,22.257,0,0,1-9.374-9.439,24.442,24.442,0,0,1-2.684-13.744,22.309,22.309,0,0,1,2.368-8.091,49.621,49.621,0,0,1,4.645-7.026q4.549-5.971,5.416-15.547Z" transform="translate(-28.737 -117.733)" fill="#fff" stroke="#231f20" stroke-miterlimit="10" stroke-width="3"/>
        <path d="M548.949,447.586q-.3,11.866-.954,29.534a6.7,6.7,0,0,0-1.938,4.243,7.394,7.394,0,0,0,1.308,4.987l-3.8,38.4,7.373-1.46,8.669-32.518,13.122-41.034Z" transform="translate(-28.737 -117.733)" fill="#fff" stroke="#231f20" stroke-miterlimit="10" stroke-width="3"/>
        <path d="M547.4,528.042l3.539-4.753-7.183-.65-3.539,4.753Z" transform="translate(-28.737 -117.733)" fill="#fff" stroke="#231f20" stroke-miterlimit="10" stroke-width="3"/>
        <path d="M687.457,426.079q-2.446,8.043,1.083,14.253a13.389,13.389,0,0,0,11.04,6.849,18.523,18.523,0,0,0,7.525-.874,24.291,24.291,0,0,0,6.878-3.673,25.7,25.7,0,0,0,9.427-13.3q2.446-8.043-1.12-14.3a13.133,13.133,0,0,0-7.225-6.054,16.71,16.71,0,0,0-3.737-.747q-7.467-.675-14.44,4.5A25.9,25.9,0,0,0,687.457,426.079Z" transform="translate(-28.737 -117.733)" fill="#fff" stroke="#231f20" stroke-miterlimit="10" stroke-width="3"/>
        <path d="M629.659,415.572a11.452,11.452,0,0,0,1.641-8.647,17.358,17.358,0,0,0-4.442-9.239,13.059,13.059,0,0,0-5.539-3.9,11.053,11.053,0,0,0-2.291-.453,6.934,6.934,0,0,0-6.7,3.035q-2.4,3.465-1.6,8.692a17.211,17.211,0,0,0,4.364,9.191,12.109,12.109,0,0,0,7.87,4.353,7.3,7.3,0,0,0,3.9-.629A7.084,7.084,0,0,0,629.659,415.572Z" transform="translate(-28.737 -117.733)" fill="#fff" stroke="#231f20" stroke-miterlimit="10" stroke-width="3"/>
        <path d="M654.215,473.8a7.227,7.227,0,0,0,4.661-3.138,10.923,10.923,0,0,0,2.152-6.147,8.088,8.088,0,0,0-.718-4.279,9.838,9.838,0,0,0-.871-1.224,4.351,4.351,0,0,0-4.354-1.621,7.363,7.363,0,0,0-4.624,3.182,10.87,10.87,0,0,0-2.189,6.1,7.625,7.625,0,0,0,1.589,5.5,4.548,4.548,0,0,0,2.037,1.453A4.5,4.5,0,0,0,654.215,473.8Z" transform="translate(-28.737 -117.733)" fill="#fff" stroke="#231f20" stroke-miterlimit="10" stroke-width="3"/>
        <path d="M552.024,352.091a13.439,13.439,0,0,0-.807-5.555,6.915,6.915,0,0,0-4.912,2.747,10.722,10.722,0,0,0-1.766,2.786q-.206.472-.416.985a8.868,8.868,0,0,0-.5,1.509,10.1,10.1,0,0,0-.478,4.375,2.713,2.713,0,0,0,.89,2.372q.668.756,2.272-.244a10.692,10.692,0,0,0,3.459-3.41,10.35,10.35,0,0,0,.951-1.469q.206-.472.416-.985A8.129,8.129,0,0,0,552.024,352.091Z" transform="translate(-28.737 -117.733)" fill="#fff" stroke="#231f20" stroke-miterlimit="10" stroke-width="3"/>
        <path d="M538.978,355.206q2.437,4.271,5.56,1.4l-1.734-9.771Z" transform="translate(-28.737 -117.733)" fill="#fff" stroke="#231f20" stroke-miterlimit="10" stroke-width="3"/>
        <g>
          <path d="M492.394,379.466l-2.434,2.48a10.789,10.789,0,0,0,.773,5.02q1.924,4.548,8.454,7.393,9.921,4.293,21.3-2.532,11.34-6.87,21.917-13.441,10.536-6.575,11.533-14.421a10.261,10.261,0,0,0-2.136-8.048q-.993,3.765-8.9,3.859a72.146,72.146,0,0,1-13.985-.979Q517.6,357.378,503.3,369.243A137.775,137.775,0,0,0,492.394,379.466Z" transform="translate(-28.737 -117.733)" fill="#fff" stroke="#231f20" stroke-miterlimit="10" stroke-width="3"/>
          <path d="M489.983,381.7l-.022.243,2.434-2.48A137.775,137.775,0,0,1,503.3,369.243q14.3-11.865,25.615-10.447a72.146,72.146,0,0,0,13.985.979q7.907-.093,8.9-3.859a15.951,15.951,0,0,0-5.395-4.129q-8.571-4.294-18.452-.442-29.3,13.142-36.093,24.064A17.458,17.458,0,0,0,489.983,381.7Z" transform="translate(-28.737 -117.733)" fill="#fff" stroke="#231f20" stroke-miterlimit="10" stroke-width="3"/>
        </g>
        <path d="M546.759,357.383q-.038,4.947,4.1,4.012l3.379-9.309Z" transform="translate(-28.737 -117.733)" fill="#fff" stroke="#231f20" stroke-miterlimit="10" stroke-width="3"/>
        <path d="M563.112,359.245a6.079,6.079,0,0,0-4.6-2.738,11.5,11.5,0,0,0-3.213.015q-.489.093-1.08.224a7.383,7.383,0,0,0-1.387.353,10.655,10.655,0,0,0-3.861,2.005,3.639,3.639,0,0,0-1.624,2.157q-.191.949,1.362,1.836a9.516,9.516,0,0,0,4.608,1.125,11.989,11.989,0,0,0,1.7-.024,8.3,8.3,0,0,0,.968-.128,8.821,8.821,0,0,0,3.012-.977A11.789,11.789,0,0,0,563.112,359.245Z" transform="translate(-28.737 -117.733)" fill="#fff" stroke="#231f20" stroke-miterlimit="10" stroke-width="3"/>
        <path d="M558.8,359.379q.167-.91-1.128-1.3a7.141,7.141,0,0,0-3.235-.058,10.476,10.476,0,0,0-3.468,1.209q-1.527.876-1.695,1.786t1.135,1.262a7.141,7.141,0,0,0,3.235.058,10.009,10.009,0,0,0,3.468-1.209Q558.637,360.29,558.8,359.379Z" transform="translate(-28.737 -117.733)" fill="#fff" stroke="#231f20" stroke-miterlimit="10" stroke-width="3"/>
        <path d="M494.589,370.582a9.975,9.975,0,0,0-6.006,7.6q-1.03,5.512,2.639,11.08a19.614,19.614,0,0,0,9.735,7.713q6.125,2.4,11.152.191a9.812,9.812,0,0,0,6.01-7.639q1.053-5.305-2.661-10.837a20.362,20.362,0,0,0-9.794-7.964Q499.572,368.415,494.589,370.582Z" transform="translate(-28.737 -117.733)" fill="#fff" stroke="#231f20" stroke-miterlimit="10" stroke-width="3"/>
        <path d="M502.022,386.556a9.012,9.012,0,0,0-1.562-3.537,9.3,9.3,0,0,0-2.779-2.747q-1.476-.87-2.306-.29t-.493,2.287a8.953,8.953,0,0,0,1.558,3.578,8.812,8.812,0,0,0,2.783,2.706q1.472.911,2.3.331T502.022,386.556Z" transform="translate(-28.737 -117.733)" fill="#fff" stroke="#231f20" stroke-miterlimit="10" stroke-width="3"/>
        <path d="M490.009,383.219a12.11,12.11,0,0,0,.566,3.242,11.688,11.688,0,0,0,1.082,2.962q.639,1.081,1.07.833.391-.251.313-1.649a14.269,14.269,0,0,0-.518-3.32,16.347,16.347,0,0,0-1.13-2.884q-.594-1.117-1.026-.87Q489.975,381.784,490.009,383.219Z" transform="translate(-28.737 -117.733)" fill="#fff" stroke="#231f20" stroke-miterlimit="10" stroke-width="3"/>
        <path d="M531.714,363.14a.772.772,0,0,0,.339-.583.9.9,0,0,0-.225-.675.829.829,0,0,0-.587-.3.841.841,0,0,0-.974.812.829.829,0,0,0,.188.631.9.9,0,0,0,.624.343A.772.772,0,0,0,531.714,363.14Z" transform="translate(-28.737 -117.733)" fill="#fff" stroke="#231f20" stroke-miterlimit="10" stroke-width="3"/>
      </g>
    </g>
  </g>
  <g>
    <path d="M223.459,201.363q-.075-13.6-6.535-29.105c.2-.378.4-.776.586-1.213a19.46,19.46,0,0,0,1.38-7.582c.121-.012.252-.02.372-.033q9.6-1.022,13.33-6.167a24.015,24.015,0,0,0-10.342-4.051,8.171,8.171,0,0,0-3.9-5.434,11.916,11.916,0,0,0-2.393-1.177,23.522,23.522,0,0,0-.075-15.391l-3.647,8.357-7.632-9.2-1.511,10.762-7.4-3.679.173,7.809-7.009-2.474,6.9,7.164.259-.033q-4.016,3.786-3.978,11.03,1.824,15.037-14.723,27.161a31.472,31.472,0,0,0-24.248,25.742q-1.683,2.974-3.276,6.376Q136.17,162,95.481,195.716a62.913,62.913,0,0,1,33.232,14.218Q83.335,188.14,64,247.325a118.853,118.853,0,0,1,27.041-15.964Q79.816,245.536,76.387,274.5q29.588-38.11,68.722-42.859Q142.417,239.1,140.019,248a138.342,138.342,0,0,0,33.778,3.61,2.166,2.166,0,0,0-.195,1.2,2.409,2.409,0,0,0,1.389,1.873l1.533,14.4.126-.013.059.557,7.119-.758-.237-2.228-4.954.527-1.36-12.782a2.454,2.454,0,0,0,.4-.387,2.086,2.086,0,0,0,.51-1.682,2.276,2.276,0,0,0-.285-.906q3.667-.26,7.15-.8a2.257,2.257,0,0,0-.1.983,2.412,2.412,0,0,0,1.388,1.873l1.533,14.4.126-.013.059.557,7.118-.758-.237-2.228-4.954.527-1.36-12.782a2.454,2.454,0,0,0,.4-.387,2.086,2.086,0,0,0,.51-1.682,2.278,2.278,0,0,0-.276-.894,29.421,29.421,0,0,0,13.414-5.973l.111.156c1.219-1.078,2.376-2.174,3.488-3.284q1.837-.317,3.668-.816,11.884-3.4,16.392-13.827,4.561-10.382-.945-21.69A34.984,34.984,0,0,0,223.459,201.363Z" transform="translate(-28.737 -117.733)" fill="#fff" stroke="#fff" stroke-miterlimit="10" stroke-width="10"/>
    <g>
      <path d="M204.6,130.366l-1.511,10.762-7.4-3.679.173,7.809-7.01-2.474,6.9,7.164,19.926-2.5a23.8,23.8,0,0,0,.2-16.241l-3.647,8.357Z" transform="translate(-28.737 -117.733)" fill="#fff" stroke="#231f20" stroke-miterlimit="10" stroke-width="3"/>
      <path d="M157.769,238.967q27.411,5.545,47.077,2.37a38.859,38.859,0,0,0,5.085-1.035q11.885-3.4,16.393-13.827,4.56-10.382-.945-21.69-5.5-11.285-17.926-16.921-12.344-5.55-24.272-2.118a21.925,21.925,0,0,0-8.444,4.589Q161.161,201.936,157.769,238.967Z" transform="translate(-28.737 -117.733)" fill="#fff" stroke="#231f20" stroke-miterlimit="10" stroke-width="3"/>
      <path d="M95.481,195.716q34.18,4.213,53.188,39.471,2.038.371,3.583-2.332Q140.259,158.6,95.481,195.716Z" transform="translate(-28.737 -117.733)" fill="#fff" stroke="#231f20" stroke-miterlimit="10" stroke-width="3"/>
      <path d="M64,247.325q38.076-29.416,80.132-21.434a5.513,5.513,0,0,0,2.226-5.15Q86.906,177.212,64,247.325Z" transform="translate(-28.737 -117.733)" fill="#fff" stroke="#231f20" stroke-miterlimit="10" stroke-width="3"/>
      <path d="M76.386,274.5q31.174-40.152,72.941-43.281a6.548,6.548,0,0,0,1.212-5.841Q85.557,197.007,76.386,274.5Z" transform="translate(-28.737 -117.733)" fill="#fff" stroke="#231f20" stroke-miterlimit="10" stroke-width="3"/>
      <path d="M214.589,159.955a13.87,13.87,0,0,0,2.133,3.7q1.307-.092,2.538-.223,9.6-1.022,13.33-6.167" transform="translate(-28.737 -117.733)" fill="#fff" stroke="#231f20" stroke-miterlimit="10" stroke-width="3"/>
      <g>
        <path d="M214.589,159.955a53.779,53.779,0,0,0,18-2.692,24.334,24.334,0,0,0-16.894-4.126,12.14,12.14,0,0,0-2.307.41,17.882,17.882,0,0,0,1.2,6.407m1.59-3.836q-.627-.145-.646-.331t.58-.3a6.89,6.89,0,0,1,1.448-.084,9.327,9.327,0,0,1,1.5.146q.629.168.649.354t-.582.274a6.046,6.046,0,0,1-1.469.109A7.715,7.715,0,0,1,216.179,156.119Z" transform="translate(-28.737 -117.733)" fill="#fff" stroke="#231f20" stroke-miterlimit="10" stroke-width="3"/>
        <path d="M219.706,155.908q-.02-.186-.649-.354a9.327,9.327,0,0,0-1.5-.146,6.89,6.89,0,0,0-1.448.084q-.6.111-.58.3t.646.331a7.715,7.715,0,0,0,1.476.172,6.046,6.046,0,0,0,1.469-.109Q219.726,156.094,219.706,155.908Z" transform="translate(-28.737 -117.733)" fill="#fff" stroke="#231f20" stroke-miterlimit="10" stroke-width="3"/>
      </g>
      <path d="M221.585,152.582q-1.837-5.775-8.658-6.695-20.982-1.457-20.893,15.058,2.3,18.983-24.661,33.324l35.4,50.132q33.218-29.345,13.1-74.593-2.354-5.109,2.278-8.188Q222.892,158.014,221.585,152.582Z" transform="translate(-28.737 -117.733)" fill="#fff" stroke="#231f20" stroke-miterlimit="10" stroke-width="3"/>
      <path d="M204.121,151.925a23.488,23.488,0,0,0,2.162,20.314q2.772,3.96,6.049,3.611,3.3-.351,5.177-4.806a23.7,23.7,0,0,0-2.162-20.314q-2.777-4.006-6.078-3.655Q205.992,147.425,204.121,151.925Z" transform="translate(-28.737 -117.733)" fill="#fff" stroke="#231f20" stroke-miterlimit="10" stroke-width="3"/>
      <path d="M202.17,149.5a7.933,7.933,0,0,0,1.373,12.9,13.652,13.652,0,0,0,16.177-1.722,7.965,7.965,0,0,0-1.373-12.9A13.557,13.557,0,0,0,202.17,149.5Z" transform="translate(-28.737 -117.733)" fill="#fff" stroke="#231f20" stroke-miterlimit="10" stroke-width="3"/>
      <path d="M211.436,149.76a3.947,3.947,0,0,0-.923,3.036,3.9,3.9,0,0,0,1.541,2.774,4.1,4.1,0,0,0,6.664-3.648,4.116,4.116,0,0,0-7.282-2.163Z" transform="translate(-28.737 -117.733)" fill="#fff" stroke="#231f20" stroke-miterlimit="10" stroke-width="3"/>
      <path d="M213.059,150.434a2.76,2.76,0,0,0-.642,2.137,2.836,2.836,0,0,0,1.08,1.977,2.879,2.879,0,0,0,4.091-.435,2.876,2.876,0,0,0,.617-2.158,2.909,2.909,0,0,0-5.145-1.521Z" transform="translate(-28.737 -117.733)" fill="#fff" stroke="#231f20" stroke-miterlimit="10" stroke-width="3"/>
      <path d="M187.867,267.878l-2.833-26.617,2.29-.244,2.833,26.617Z" transform="translate(-28.737 -117.733)" fill="#fff" stroke="#231f20" stroke-miterlimit="10" stroke-width="3"/>
      <path d="M189.016,252.794a2.213,2.213,0,0,1-1.537.852,2.3,2.3,0,0,1-.488-4.581,2.213,2.213,0,0,1,1.682.51,2.255,2.255,0,0,1,.343,3.219Z" transform="translate(-28.737 -117.733)" fill="#fff" stroke="#231f20" stroke-miterlimit="10" stroke-width="3"/>
      <path d="M188.052,268.422l-.237-2.228,7.118-.758.237,2.228Z" transform="translate(-28.737 -117.733)" fill="#fff" stroke="#231f20" stroke-miterlimit="10" stroke-width="3"/>
      <path d="M152.742,216.7a30.512,30.512,0,0,0,7.473,22.946,30.074,30.074,0,0,0,21.4,10.886,29.756,29.756,0,0,0,22.629-7.58,31.76,31.76,0,0,0,3.231-44.512,31.016,31.016,0,0,0-44.05-3.3A30.429,30.429,0,0,0,152.742,216.7Z" transform="translate(-28.737 -117.733)" fill="#fff" stroke="#231f20" stroke-miterlimit="10" stroke-width="3"/>
      <path d="M176.524,269.085l-2.833-26.617,2.29-.244,2.833,26.617Z" transform="translate(-28.737 -117.733)" fill="#fff" stroke="#231f20" stroke-miterlimit="10" stroke-width="3"/>
      <path d="M177.673,254a2.213,2.213,0,0,1-1.537.852,2.3,2.3,0,0,1-.488-4.581,2.213,2.213,0,0,1,1.682.51,2.255,2.255,0,0,1,.343,3.219Z" transform="translate(-28.737 -117.733)" fill="#fff" stroke="#231f20" stroke-miterlimit="10" stroke-width="3"/>
      <path d="M176.709,269.629l-.237-2.228,7.118-.758.237,2.228Z" transform="translate(-28.737 -117.733)" fill="#fff" stroke="#231f20" stroke-miterlimit="10" stroke-width="3"/>
      <path d="M140.019,248q25.83,5.713,45.706,2.516a41.278,41.278,0,0,0,5.178-1.045,30.444,30.444,0,0,0,18.625-14.065,26.772,26.772,0,0,0,3.076-22.118A27.342,27.342,0,0,0,198.163,196a31.026,31.026,0,0,0-23.389-2.212,26.631,26.631,0,0,0-9.141,4.663Q150.176,210.251,140.019,248Z" transform="translate(-28.737 -117.733)" fill="#fff" stroke="#231f20" stroke-miterlimit="10" stroke-width="3"/>
    </g>
  </g>
  <g>
    <path d="M191.827,402.327a32.818,32.818,0,0,0-22.6-6.268,17.08,17.08,0,0,0-2.642.347q-3.91-5.795-13.518-5.9-19.876.368-18.225,24.194.036,1.826.189,3.779a27.164,27.164,0,0,1-.5,7.948,163.761,163.761,0,0,1-37.928,33.1l.1.038L92,462.48l.342-.423L52.565,484.266l4.972-.532-.469.289a287.543,287.543,0,0,0,77.823-1.358c1.534-.236,3.07-.492,4.607-.755l.4,5.279a3.189,3.189,0,0,0,.409,5.439l1.462,19.465.167-.013.057.753,24.11-1.811-.226-3.014-8.958.673-1.3-17.28a3.356,3.356,0,0,0,.551-.512,3.041,3.041,0,0,0-.327-4.353,3.358,3.358,0,0,0-.621-.423l-.54-7.185q22.617-6.427,23.045-32.042.083-1.062.125-2.127.066-1.562.083-3.1.036-2.448-.049-4.865-.005-.184-.028-.377a88.6,88.6,0,0,0-4.975-26.282c.24-.016.484-.03.721-.047Q186.583,409.106,191.827,402.327ZM152.2,486.2a3.149,3.149,0,0,0-.792.665,3.042,3.042,0,0,0,.327,4.353,3.147,3.147,0,0,0,.882.539l1.288,17.145-9.209.692-1.3-17.28a3.356,3.356,0,0,0,.551-.512,3.041,3.041,0,0,0-.327-4.353,3.358,3.358,0,0,0-.621-.423l-.425-5.662c.124-.024.249-.041.373-.068q2.685-.459,5.362-1,1.752-.266,3.4-.625Z" transform="translate(-28.737 -117.733)" fill="#fff" stroke="#fff" stroke-miterlimit="10" stroke-width="10"/>
    <g>
      <path d="M144.863,511.859l-2.7-36-3.1.233,2.7,36Z" transform="translate(-28.737 -117.733)" fill="#fff" stroke="#231f20" stroke-miterlimit="10" stroke-width="3"/>
      <path d="M157.123,511.443l-2.7-36-3.014.226,2.7,36Z" transform="translate(-28.737 -117.733)" fill="#fff" stroke="#231f20" stroke-miterlimit="10" stroke-width="3"/>
      <path d="M144.7,489.561a2.813,2.813,0,0,0-1.084-2.107,2.984,2.984,0,0,0-2.246-.757,3.106,3.106,0,0,0,.465,6.195,2.984,2.984,0,0,0,2.107-1.084A2.813,2.813,0,0,0,144.7,489.561Z" transform="translate(-28.737 -117.733)" fill="#fff" stroke="#231f20" stroke-miterlimit="10" stroke-width="3"/>
      <path d="M156.925,488.643a2.813,2.813,0,0,0-1.084-2.107,2.984,2.984,0,0,0-2.246-.757,3.081,3.081,0,0,0-2.191,1.091,3.041,3.041,0,0,0,.327,4.353,3.081,3.081,0,0,0,2.329.751,2.984,2.984,0,0,0,2.107-1.084A2.813,2.813,0,0,0,156.925,488.643Z" transform="translate(-28.737 -117.733)" fill="#fff" stroke="#231f20" stroke-miterlimit="10" stroke-width="3"/>
      <path d="M166.1,511.021l-.226-3.014-24.11,1.811.226,3.014Z" transform="translate(-28.737 -117.733)" fill="#fff" stroke="#231f20" stroke-miterlimit="10" stroke-width="3"/>
      <path d="M167.659,398.326a13.251,13.251,0,0,0-1.024-1.851q-3.9-5.866-13.568-5.967-19.876.368-18.225,24.194.036,1.826.189,3.779,1.2,15.212-12.851,25.023-.533.359-1.145.75a.636.636,0,0,1-.09.07q-12.324,8.008-63.878,39.7a287.542,287.542,0,0,0,77.823-1.358q3.431-.529,6.868-1.148.6-.088,1.185-.215,2.685-.459,5.362-1,28.939-4.4,29.418-33.412.083-1.062.125-2.127.066-1.562.083-3.1.036-2.448-.049-4.865-.005-.184-.028-.377A86.863,86.863,0,0,0,167.659,398.326Z" transform="translate(-28.737 -117.733)" fill="#fff" stroke="#231f20" stroke-miterlimit="10" stroke-width="3"/>
      <path d="M94.353,471.168l3.669-5.871-8.833.664,3.152-3.9L52.565,484.266l56.543-6.05Z" transform="translate(-28.737 -117.733)" fill="#fff" stroke="#231f20" stroke-miterlimit="10" stroke-width="3"/>
      <path d="M156.131,399.631a2.027,2.027,0,1,0,1.379-.693A1.943,1.943,0,0,0,156.131,399.631Z" transform="translate(-28.737 -117.733)" fill="#fff" stroke="#231f20" stroke-miterlimit="10" stroke-width="3"/>
      <path d="M134.457,432.717l1.4-7.882a163.228,163.228,0,0,1-39.249,34.688q48.165,19.445,59.292-26.678l-13.2,3.141-.8-10.688Z" transform="translate(-28.737 -117.733)" fill="#fff" stroke="#231f20" stroke-miterlimit="10" stroke-width="3"/>
      <path d="M167.448,405.2a18.7,18.7,0,0,0,2.721,5.075q1.765-.069,3.431-.195,12.983-.975,18.227-7.755" transform="translate(-28.737 -117.733)" fill="#fff" stroke="#231f20" stroke-miterlimit="10" stroke-width="3"/>
      <g>
        <path d="M166.1,396.515a24.117,24.117,0,0,0,1.348,8.687,72.528,72.528,0,0,0,24.379-2.875,32.818,32.818,0,0,0-22.6-6.268,16.371,16.371,0,0,0-3.127.456m3.652,3.582q-.839-.222-.857-.473t.794-.376a9.293,9.293,0,0,1,1.956-.052,12.579,12.579,0,0,1,2.011.26q.841.253.86.5t-.8.344a8.155,8.155,0,0,1-1.985.086A10.4,10.4,0,0,1,169.752,400.1Z" transform="translate(-28.737 -117.733)" fill="#fff" stroke="#231f20" stroke-miterlimit="10" stroke-width="3"/>
        <path d="M168.894,399.624q.019.251.857.473a10.4,10.4,0,0,0,1.982.294,8.155,8.155,0,0,0,1.985-.086q.815-.093.8-.344t-.86-.5a12.579,12.579,0,0,0-2.011-.26,9.293,9.293,0,0,0-1.956.052Q168.875,399.372,168.894,399.624Z" transform="translate(-28.737 -117.733)" fill="#fff" stroke="#231f20" stroke-miterlimit="10" stroke-width="3"/>
      </g>
    </g>
  </g>
  <g>
    <path d="M984.411,519.79a41.3,41.3,0,0,1-17.269-2.113l2.3-4.347a1.7,1.7,0,0,0-.226-.1,37.475,37.475,0,0,0,14.869,1.652l.524,4.891Z" transform="translate(-28.737 -117.733)" fill="#fff"/>
    <path d="M964.895,502.515q-6.63-3.253-17.328-2.361-9.516,1.438-10.268,11.882-.377,9.176.063,23.185.834,26.408-7.027,32.659-9.247,4.913-33.006,4.852h-.013q-17.568.023-19.847-2.7,19.176-3.667,26.025-8.043,6.677-6.271.609-11.65a11.949,11.949,0,0,0-1.671-1.049q-4.261-2.508-16.152-2.672-18.364-.28-67.138,16.962,2.883-.455,7.232-1.114,19.888-3,51.664-4.285a44.593,44.593,0,0,0-10.262,4.139q-5.858,3.412-7.771,8.215-3.261,8.173,3.072,12.432t18.68,5.326q.4.049.808.072l.437.021q40.424,1.8,54.229-7.035h.013q17.425-8.6,16.165-48.558-.2-6.1,2.235-9.484a12.53,12.53,0,0,1,7.613-3.712,12.4,12.4,0,0,0,6.946-2.783,7.686,7.686,0,0,0,2.3-3.679Q973.205,507.124,964.895,502.515Z" transform="translate(-28.737 -117.733)" fill="#fff" stroke="#fff" stroke-linecap="round" stroke-linejoin="round" stroke-width="10"/>
    <g>
      <g>
        <path d="M982.967,516.5a17.582,17.582,0,0,1-11.1-1.7l-2.028.857a18.756,18.756,0,0,0,11.2,2.745q.892-.062,1.84-.2l-4.855-.752Z" transform="translate(-28.737 -117.733)" fill="#fff"/>
        <path d="M971.864,514.793l-2.028.857a18.735,18.735,0,0,0,9.856,2.791q.668,0,1.347-.045.892-.062,1.84-.2l-4.855-.752,4.943-.943a19.6,19.6,0,0,1-3.086.25,17.249,17.249,0,0,1-8.017-1.953Z" transform="translate(-28.737 -117.733)" fill="#231f20"/>
      </g>
      <g>
        <path d="M877.468,570.034q19.176-3.667,26.025-8.043,6.677-6.271.609-11.65a11.952,11.952,0,0,0-1.671-1.049q-4.261-2.508-16.153-2.672-18.364-.28-67.138,16.962,2.883-.455,7.232-1.114,19.888-3,51.664-4.285a44.591,44.591,0,0,0-10.262,4.139" transform="translate(-28.737 -117.733)" fill="#fff" stroke="#231f20" stroke-linecap="round" stroke-linejoin="round" stroke-width="3"/>
        <path d="M867.774,562.321q-5.858,3.412-7.771,8.215-3.261,8.173,3.072,12.432t18.68,5.326q.4.049.808.072l.437.021q40.424,1.8,54.229-7.035h.013q17.425-8.6,16.165-48.558-.2-6.1,2.235-9.484a12.53,12.53,0,0,1,7.613-3.712,12.4,12.4,0,0,0,6.946-2.783,7.686,7.686,0,0,0,2.3-3.679q.7-6.012-7.61-10.621-6.63-3.253-17.328-2.361-9.516,1.438-10.268,11.882-.377,9.176.063,23.185.834,26.408-7.027,32.659-9.247,4.913-33.006,4.852h-.013q-17.569.023-19.847-2.7" transform="translate(-28.737 -117.733)" fill="#fff" stroke="#231f20" stroke-miterlimit="10" stroke-width="3"/>
      </g>
      <path d="M962,509.191a1.662,1.662,0,0,0,.509-1.11,1.3,1.3,0,0,0-.4-1.048,1.322,1.322,0,0,0-1.062-.375,1.685,1.685,0,0,0-1.109.525,1.662,1.662,0,0,0-.509,1.11,1.3,1.3,0,0,0,.4,1.048,1.322,1.322,0,0,0,1.062.375A1.685,1.685,0,0,0,962,509.191Z" transform="translate(-28.737 -117.733)" fill="#fff" stroke="#231f20" stroke-miterlimit="10" stroke-width="3"/>
    </g>
  </g>
  <g>
    <path d="M478.995,585.059c-.495-2.743-3.262-2.135-5.464-1.714a60.087,60.087,0,0,0-11.378,3.681c-.08.036-35.7,17.467-62.445-84.714a30.281,30.281,0,0,0-6.5-14.077c-7.294-9.026-19.435-14.133-29.74-20.473-8.338-5.131-14.414-13.5-19.227-21.961-.6-1.044-1.132-2.1-1.625-3.173.264-6.912,2.072-21.791-.457-30.368l23.027-61.765S336.069,375.85,339.325,407.2a5.536,5.536,0,0,0-3.989-1.387l2.021-55.321s-21.9,30.981-3.488,55.418c-1.456.124-3.334.336-5.455.6-5.37.6-13.9,1.9-21.725,3.171-3.752.591-6.3,1.008-6.3,1.008a4.789,4.789,0,0,0-.705.146c-1.709.286-3.3.554-4.717.8a16.278,16.278,0,0,0-3.887.667l-.156.027c-.049.023-.1.049-.148.073-3.128,1.08-5.948,3.622-3.321,9.568a16.554,16.554,0,0,0,2.295,5.295,8.559,8.559,0,0,0,.9,1.144c.019.016.041.027.061.041a9.1,9.1,0,0,0,1.2,1.06c2.495,1.839,5.479,1.695,8.352,1.862a50.706,50.706,0,0,1,9.675,1.015,7.408,7.408,0,0,1,5.035,6.877,93.986,93.986,0,0,0-.266,31.82c-1.945-.723-8.044-2.055-8.493,9.295-.554.022-1.172.053-1.839.089l1.363-13.2s-10.134.4-2.873,13.291c-4.528.276-10.557.752-14.683,1.091-1.118-.113-7.624-.482-5.028,6.564l.051-.01a7.622,7.622,0,0,0,.392.813L283.57,489a4.722,4.722,0,0,0,1.1,1.429.183.183,0,0,0,.064.026c2.884,2.476,7.526.12,11.056,3.54.059.057.668.813,1.618,1.9l-.3.008c1.325,5.8,4.54,37.513,27.047,39.528a331.7,331.7,0,0,0,14.5,34.31s-87.114-12.586-85.482,8.594l95.627.247c1.052,2.534,3.159,7.909,4.282,8.2,0,0-87.114-12.586-85.481,8.593l99.778.259s-7.207-36.178,3.728-51a34.277,34.277,0,0,0,7.239-2.58,37.269,37.269,0,0,0,5.44-3.046c.632,1.27,1.212,2.36,1.384,2.766a121.491,121.491,0,0,0,10.491,19.826,109.372,109.372,0,0,0,17.885,20.784c7.188,6.481,15.547,12.133,25.23,13.892,11.628,2.11,23.161-1.693,33.929-5.749C475.029,589.647,479.577,588.295,478.995,585.059ZM314.855,471.952a73.623,73.623,0,0,0,4.264,14.575q-2.848,1.15-5.907,2.5c.175-4.22-.553-8.093-4.447-8.618Z" transform="translate(-28.737 -117.733)" fill="#fff" stroke="#fff" stroke-linejoin="round" stroke-width="10"/>
    <g>
      <path d="M304.14,482.687l1.592-15.42S294.489,467.7,304.14,482.687Z" transform="translate(-28.737 -117.733)" fill="#fff" stroke="#231f20" stroke-linecap="round" stroke-linejoin="round" stroke-width="3"/>
      <path d="M335.268,407.675l2.089-57.18S314.38,382.993,335.268,407.675Z" transform="translate(-28.737 -117.733)" fill="#fff" stroke="#231f20" stroke-linecap="round" stroke-linejoin="round" stroke-width="3"/>
      <path d="M307.746,480.337c-3.642.041-13.845.84-19.8,1.33l-4.929,6.069c2.337,6.638,8.407,2.025,12.774,6.255.318.308,16.379,20.625,16.42,4.864C312.226,493.963,316.418,480.243,307.746,480.337Z" transform="translate(-28.737 -117.733)" fill="#fff" stroke="#231f20" stroke-linecap="round" stroke-linejoin="round" stroke-width="3"/>
      <path d="M393.21,488.235c-7.294-9.026-19.435-14.133-29.74-20.473-8.338-5.131-14.414-13.5-19.227-21.961a44.658,44.658,0,0,1-3.872-9.121l-15.216-14.424-5.889.616s-17,42.594,7.182,77.058a37.323,37.323,0,1,0,73.745,8.155A30.435,30.435,0,0,0,393.21,488.235Z" transform="translate(-28.737 -117.733)" fill="#fff" stroke="#231f20" stroke-linecap="round" stroke-linejoin="round" stroke-width="3"/>
      <circle cx="299.379" cy="483.719" r="0.974" transform="translate(-251.703 591.301) rotate(-81.579)" fill="#231f20" stroke="#231f20" stroke-miterlimit="10" stroke-width="3"/>
      <path d="M283.149,488.213s5.474-.989,5.192-6.545C288.341,481.668,280.314,480.517,283.149,488.213Z" transform="translate(-28.737 -117.733)" fill="#fff" stroke="#231f20" stroke-linecap="round" stroke-linejoin="round" stroke-width="3"/>
      <path d="M361.067,479.606s-82.491-34.513-22.411,90.133c0,0-87.114-12.586-85.482,8.594l99.778.258s-11.6-58.256,16.982-57.211Z" transform="translate(-28.737 -117.733)" fill="#fff" stroke="#231f20" stroke-linecap="round" stroke-linejoin="round" stroke-width="3"/>
      <path d="M335.391,494.956c-.034,0-37.987.934-38.279.945,1.337,5.852,4.592,38.063,27.626,39.579,32,2.108,21.549-15.995,18.506-23.721C342.258,509.258,338.644,494.843,335.391,494.956Z" transform="translate(-28.737 -117.733)" fill="#fff" stroke="#231f20" stroke-linecap="round" stroke-linejoin="round" stroke-width="3"/>
      <path d="M306.234,483.918l9.062-12.577S305.331,466.117,306.234,483.918Z" transform="translate(-28.737 -117.733)" fill="#fff" stroke="#231f20" stroke-linecap="round" stroke-linejoin="round" stroke-width="3"/>
      <path d="M371.055,490.29s-2.135-26.1-58.806-.845c0,0-12.934,15.133-.222,16.743,0,0,1.893-17.37,27.813-10.929C339.84,495.259,372.105,501.509,371.055,490.29Z" transform="translate(-28.737 -117.733)" fill="#fff" stroke="#231f20" stroke-linecap="round" stroke-linejoin="round" stroke-width="3"/>
      <path d="M365.5,482.5c-18.342-.671-36.8,13.381-37.435,30.748-.335,9.161,2.681,19.274,5.335,28.01a216.138,216.138,0,0,0,10.64,27.267q2.075,4.516,4.286,8.967c.683,1.376,3.418,8.943,4.757,9.286,0,0-87.114-12.586-85.481,8.593l99.778.259s-7.207-36.178,3.728-51a34.147,34.147,0,0,0,7.355-2.634,35.654,35.654,0,0,0,3.134-1.8,27.274,27.274,0,0,0,8.766-9.205L383.5,539.5a153.511,153.511,0,0,0,12.161,22.091,109.376,109.376,0,0,0,17.885,20.784c7.188,6.481,15.548,12.133,25.23,13.892,11.628,2.11,23.161-1.693,33.929-5.749,2.323-.871,6.871-2.223,6.289-5.459-.494-2.743-3.262-2.135-5.464-1.714a60.084,60.084,0,0,0-11.378,3.681c-.081.037-36.623,17.923-63.471-88.7Z" transform="translate(-28.737 -117.733)" fill="#fff" stroke="#231f20" stroke-linecap="round" stroke-linejoin="round" stroke-width="3"/>
      <path d="M343.534,444.626a7.069,7.069,0,0,1-.916-1.986c.384-10.129,4.106-37.44-7.435-36.822-1.54.082-3.939.341-6.769.7-5.37.6-13.9,1.9-21.725,3.171-3.752.591-6.3,1.008-6.3,1.008a4.786,4.786,0,0,0-.705.146c-3.617.6-6.717,1.136-8.761,1.49a6.923,6.923,0,0,0-4.281,5.564c.658,4.342,1.82,9.074,5.267,11.617,2.495,1.839,5.48,1.695,8.352,1.862a50.708,50.708,0,0,1,9.676,1.015c2.228.876,5.944,3.252,4.851,9.183Z" transform="translate(-28.737 -117.733)" fill="#fff" stroke="#231f20" stroke-linecap="round" stroke-linejoin="round" stroke-width="3"/>
      <circle cx="315.173" cy="414.46" r="1.994" transform="translate(-159.818 564.995) rotate(-83.761)" fill="#fff" stroke="#231f20" stroke-linecap="round" stroke-linejoin="round" stroke-width="3"/>
      <path d="M287.881,422.89s9.078-1.566,8.359-11.273C296.24,411.617,281.854,410.994,287.881,422.89Z" transform="translate(-28.737 -117.733)" fill="#fff" stroke="#231f20" stroke-linecap="round" stroke-linejoin="round" stroke-width="3"/>
      <path d="M340.948,415.514l24.24-65.019S330.775,380.455,340.948,415.514Z" transform="translate(-28.737 -117.733)" fill="#fff" stroke="#231f20" stroke-linecap="round" stroke-linejoin="round" stroke-width="3"/>
    </g>
  </g>
  <g>
    <path d="M985.234,276.623l-2.3-2.453a24.643,24.643,0,0,1-2.776-3.277,13.538,13.538,0,0,1-1.906-4.6c-.338-1.786-.694-3.67-1.061-5.62-.731-3.932-1.51-8.125-2.289-12.318-.432-2.13-.681-4.117-1.259-6.332a15.5,15.5,0,0,0-3.116-6.1,15.787,15.787,0,0,0-5.176-3.939,13.116,13.116,0,0,0-3.007-1.076,15.433,15.433,0,0,0-2.6-.429l-.3-.036-.147-.018-.336-.016-.582-.022-1.119-.043-2.069-.078-3.363-.129-1.394-.053a32.238,32.238,0,0,0-20.4-12.734l-2.862-.507c-.676-.12-1.326-.32-1.989-.478a34.01,34.01,0,0,1-20.423-14.256l0-.005q-.254-.383-.494-.769l-.091-.149q-.2-.326-.4-.657c-.057-.1-.112-.2-.168-.294-.1-.18-.206-.36-.306-.542-.085-.155-.166-.312-.249-.468-.07-.132-.141-.263-.209-.4q-.225-.442-.439-.891l-3.685-7.78a23.457,23.457,0,0,0-20.351-13.4q-.422-.015-.847-.015h-.254a23.451,23.451,0,0,0-17.208,7.517L842.4,208.474l-3.478,4.768h0L826.085,230.85l-6.844-.117a11.271,11.271,0,0,1-8.2-6.123l-14.506-38.456a13.46,13.46,0,0,0-1.915-3.8l1.5-.794a1.959,1.959,0,0,0,.02-3.459c-.071-.034-.138-.067-.209-.1a3.725,3.725,0,0,0-4.477,1.215,13.444,13.444,0,0,0-7.794-2.478h-.273a13.475,13.475,0,0,0-10.108,4.55h-8.926a13.32,13.32,0,0,0-13.32,13.322v.18a4.69,4.69,0,0,0,4.691,4.693h16.536a13.493,13.493,0,0,0,11.127,5.849h.273c.321,0,.638-.015.953-.037l7.77,28.49a32.144,32.144,0,0,0,17.084,15.7c5.659,2.221,15.711,8.813,21.882,12.189L835.374,267a29.67,29.67,0,0,0,9.532,8.184v36.672a11.449,11.449,0,0,1-.688,3.9l-12.708,34.948-7.206,2.1a9.438,9.438,0,0,0-6.032,5.342l-1.115,2.6H831.8A4.445,4.445,0,0,0,836,357.735l14.99-44.347,7.5-29.6,11.687,36.48,3.7,29.249a2.742,2.742,0,0,1-1.868,2.951l-1.2.4c-2.9.952-8.124,4.25-8.124,7.3v1.179l12.537-.59a4.441,4.441,0,0,0,4.41-4.973l-4.382-36.512-1.587-40.5h58.123l16.025,32.492-6.274,38.039a5.959,5.959,0,0,1-4.6,4.851l-1.971.438a6.821,6.821,0,0,0-2.887,3.63l-.994,2.962,11.728-.338a3.45,3.45,0,0,0,3.3-2.878l8.194-48.655-3.638-26.231,21.833,28.182,4.626,36.805a5.236,5.236,0,0,1-3.881,5.721l-1.461.38a6.8,6.8,0,0,0-2.884,3.63l-1,2.962,11.023-.32a3.4,3.4,0,0,0,3.3-3.63l-3.225-47.5-19.433-53.609h0L955.533,240.7a32.274,32.274,0,0,0-2.112-5.653l1.772-.069q.976-.033,2.069-.078c.364-.013.738-.028,1.119-.042l.582-.024h.072l.034,0,.295.012a12.21,12.21,0,0,1,2.335.205,9.3,9.3,0,0,1,2.046.587,11.992,11.992,0,0,1,4.146,2.669,12.2,12.2,0,0,1,2.789,4.584c.634,1.8,1.112,4.025,1.682,6.036,1.1,4.123,2.191,8.243,3.218,12.108.527,1.946,1.032,3.824,1.513,5.609a14.683,14.683,0,0,0,2.4,4.717,25.5,25.5,0,0,0,3.1,3.147l2.484,2.271c1.377,1.259,2.164,1.98,2.164,1.98ZM958.9,234.829h.01C958.856,234.827,958.826,234.826,958.9,234.829Z" transform="translate(-28.737 -117.733)" fill="#fff" stroke="#fff" stroke-miterlimit="10" stroke-width="10"/>
    <g>
      <path d="M844.906,266.023v45.83a11.447,11.447,0,0,1-.688,3.9L831.51,350.705l-7.206,2.1a9.438,9.438,0,0,0-6.032,5.342l-1.116,2.6H831.8A4.444,4.444,0,0,0,836,357.735l14.99-44.347,9.7-38.275Z" transform="translate(-28.737 -117.733)" fill="#fff" stroke="#231f20" stroke-miterlimit="10" stroke-width="3"/>
      <path d="M929.406,273.927l18.411,37.328-6.274,38.039a5.958,5.958,0,0,1-4.6,4.851l-1.971.438a6.821,6.821,0,0,0-2.887,3.63l-.994,2.962,11.728-.338a3.451,3.451,0,0,0,3.3-2.878l8.194-48.655-5.2-37.472Z" transform="translate(-28.737 -117.733)" fill="#fff" stroke="#231f20" stroke-miterlimit="10" stroke-width="3"/>
      <path d="M844.906,266.023l-12.019-3.532c-5.9-2.992-17.264-10.589-23.422-13.005a32.143,32.143,0,0,1-17.084-15.7L783.521,201.3l12.9-15.451,14.621,38.76a11.271,11.271,0,0,0,8.2,6.123l15.742.269Z" transform="translate(-28.737 -117.733)" fill="#fff" stroke="#231f20" stroke-miterlimit="10" stroke-width="3"/>
      <path d="M826.084,230.851l33.976-46.595a23.451,23.451,0,0,1,17.208-7.516h.254a23.456,23.456,0,0,1,21.2,13.416l3.685,7.78a33.978,33.978,0,0,0,24.766,18.907l2.862.507a32.248,32.248,0,0,1,25.5,23.355l5.583,20.7a13.772,13.772,0,0,1-13.3,17.355H859.034A29.675,29.675,0,0,1,835.374,267l-9.29-12.277Z" transform="translate(-28.737 -117.733)" fill="#fff" stroke="#231f20" stroke-miterlimit="10" stroke-width="3"/>
      <path d="M948.9,230.026l2.929.111,3.363.129,2.069.078,1.119.044.582.022.336.016.147.018.3.036a15.423,15.423,0,0,1,2.6.429,13.118,13.118,0,0,1,3.007,1.076,15.785,15.785,0,0,1,5.176,3.939,15.5,15.5,0,0,1,3.116,6.1c.578,2.215.827,4.2,1.259,6.332.78,4.193,1.559,8.387,2.289,12.318.367,1.95.723,3.834,1.061,5.62a13.544,13.544,0,0,0,1.906,4.6,24.666,24.666,0,0,0,2.776,3.277c.89.947,1.666,1.773,2.3,2.453l2.006,2.14s-.787-.722-2.164-1.98c-.688-.631-1.524-1.394-2.483-2.271a25.5,25.5,0,0,1-3.1-3.147,14.679,14.679,0,0,1-2.4-4.717c-.481-1.784-.986-3.663-1.513-5.609-1.027-3.865-2.122-7.985-3.218-12.108-.57-2.011-1.048-4.237-1.682-6.036a12.2,12.2,0,0,0-2.789-4.584,11.992,11.992,0,0,0-4.146-2.669,9.3,9.3,0,0,0-2.046-.587,12.22,12.22,0,0,0-2.335-.205l-.3-.013-.147-.007-.02,0c-.175-.007.221.011.173.009l-.036,0h-.073l-.582.023c-.381.015-.756.029-1.119.042q-1.093.044-2.069.078c-1.3.051-2.429.095-3.363.129l-2.929.113" transform="translate(-28.737 -117.733)" fill="#fff" stroke="#231f20" stroke-miterlimit="10" stroke-width="3"/>
      <path d="M782.222,199.484h-26.5a4.69,4.69,0,0,1-4.691-4.693v-.18a13.319,13.319,0,0,1,13.32-13.322h17.871Z" transform="translate(-28.737 -117.733)" fill="#fff" stroke="#231f20" stroke-miterlimit="10" stroke-width="3"/>
      <path d="M796.9,194.5a13.57,13.57,0,0,0,.266-2.68v-1.573a13.51,13.51,0,0,0-13.51-13.511h-.273a13.51,13.51,0,0,0-13.51,13.511v1.573a13.509,13.509,0,0,0,13.51,13.509h.273a13.546,13.546,0,0,0,3.184-.377Z" transform="translate(-28.737 -117.733)" fill="#fff" stroke="#231f20" stroke-miterlimit="10" stroke-width="3"/>
      <path d="M791.7,185.849l.863-4.051a3.851,3.851,0,0,1,5.238-2.842c.071.033.138.065.209.1a1.959,1.959,0,0,1-.02,3.459Z" transform="translate(-28.737 -117.733)" fill="#fff" stroke="#231f20" stroke-miterlimit="10" stroke-width="3"/>
      <path d="M783.521,185.334c0,.97-1.737,2.273-2.707,2.273s-2.573-1.3-2.573-2.273,1.6-1.243,2.573-1.243S783.521,184.362,783.521,185.334Z" transform="translate(-28.737 -117.733)" fill="#fff" stroke="#231f20" stroke-miterlimit="10" stroke-width="3"/>
      <g>
        <path d="M930.033,217.35l-2.862-.507c-.676-.12-1.326-.32-1.989-.478v32.652H844.906V205.04l-5.981,8.2v42.412h91.937V217.528C930.585,217.472,930.313,217.4,930.033,217.35Z" transform="translate(-28.737 -117.733)" fill="#fff" stroke="#231f20" stroke-miterlimit="10" stroke-width="3"/>
        <path d="M925.182,249.017V216.365a33.933,33.933,0,0,1-22.777-18.429l-3.685-7.78a23.458,23.458,0,0,0-21.2-13.416h-.254a23.451,23.451,0,0,0-17.208,7.516L844.906,205.04v43.976Z" transform="translate(-28.737 -117.733)" fill="#fff" stroke="#231f20" stroke-miterlimit="10" stroke-width="3"/>
      </g>
      <path d="M873.5,277.5l1.755,41.767,4.382,36.513a4.441,4.441,0,0,1-4.41,4.973l-12.536.591v-1.179c0-3.054,5.22-6.352,8.123-7.3l1.2-.4a2.742,2.742,0,0,0,1.868-2.95l-3.7-29.249-14.846-46.338Z" transform="translate(-28.737 -117.733)" fill="#fff" stroke="#231f20" stroke-miterlimit="10" stroke-width="3"/>
      <path d="M959.576,255.694,979.01,309.3l3.225,47.5a3.4,3.4,0,0,1-3.3,3.63l-11.023.32,1-2.962a6.8,6.8,0,0,1,2.883-3.63l1.461-.38a5.236,5.236,0,0,0,3.881-5.721l-4.626-36.8L945.5,277.5Z" transform="translate(-28.737 -117.733)" fill="#fff" stroke="#231f20" stroke-miterlimit="10" stroke-width="3"/>
      <polyline points="919.763 115.767 920.165 112.293 920.165 117.492" fill="#fff" stroke="#231f20" stroke-miterlimit="10" stroke-width="3"/>
    </g>
  </g>
  <g>
    <path d="M516.955,230.665q1.06-.675,2.088-1.394c.16-.111.32-.222.478-.335.209-.149.423-.291.63-.443l3.722.611,52.015,23.089-22.059-18.169,23.544,3.867-27.136-12.578h9.352s-10.4-5.425-24.411-12.963l-2.082-1.121-.338-.182-2.112-1.14-.014-.007c-9.265-5.009-19.674-10.713-29.541-16.292l-.195-.11q-2.358-1.333-4.665-2.653l-.359-.205q-.963-.551-1.914-1.1l-.391-.225q-1.068-.616-2.12-1.226l-.446-.259-1.614-.94-.675-.394q-.793-.464-1.571-.922l-.63-.371q-.825-.487-1.633-.967l-.791-.471-1.1-.656-.823-.494c-1.288-.776-2.54-1.537-3.741-2.277l-.1-.063q-.929-.573-1.819-1.129l-.1-.059c-1.828-1.144-3.528-2.233-5.074-3.256l-.057-.038q-.747-.494-1.444-.967l-.1-.068q-.692-.471-1.335-.919l-.054-.038c-.882-.617-1.688-1.2-2.41-1.748a25.776,25.776,0,0,1-3.32-2.867c-8.189-9-9.492-30.577-9.7-36.733-.035-1.063-.039-1.677-.039-1.677a45.271,45.271,0,0,0-4.709,1.353c.483-1.691.9-3.11,1.214-4.167.4-1.349.64-2.129.64-2.129a42.311,42.311,0,0,0-7.672,5.174c-.112-1.494-.2-2.763-.263-3.737-.09-1.405-.136-2.219-.136-2.219a46.788,46.788,0,0,0-9.325,16.151,17.848,17.848,0,0,0-5.444,12.7v4.153s-11.31-.558-15.419,3.551-4.159,12.274-4.159,12.274,4.666-5.173,9.129-5.173c7.911,0,10.449,4.5,10.449,4.5v7.882a58.667,58.667,0,0,0,45.951,57.34v30.632a2.256,2.256,0,0,0,4.513,0V239.231q1.837.253,3.709.393v29.435a2.255,2.255,0,1,0,4.511,0V239.78a58,58,0,0,0,30.785-8.921Z" transform="translate(-28.737 -117.733)" fill="#fff" stroke="#fff" stroke-linecap="round" stroke-linejoin="round" stroke-width="10"/>
    <g>
      <path d="M485.866,269.059a2.256,2.256,0,0,1-2.256,2.256h0a2.255,2.255,0,0,1-2.255-2.256v-35.5a2.256,2.256,0,0,1,2.255-2.256h0a2.256,2.256,0,0,1,2.256,2.256Z" transform="translate(-28.737 -117.733)" fill="#fff" stroke="#231f20" stroke-linejoin="round" stroke-width="3"/>
      <path d="M477.647,269.059a2.257,2.257,0,0,1-2.258,2.256h0a2.255,2.255,0,0,1-2.255-2.256v-35.5a2.256,2.256,0,0,1,2.255-2.256h0a2.258,2.258,0,0,1,2.258,2.256Z" transform="translate(-28.737 -117.733)" fill="#fff" stroke="#231f20" stroke-linejoin="round" stroke-width="3"/>
      <g>
        <g>
          <polygon points="482.701 105.852 547.151 134.461 510.907 104.609 482.701 105.852" fill="#fff" stroke="#231f20" stroke-linejoin="round" stroke-width="3"/>
          <polygon points="482.701 105.852 547.151 134.461 510.907 104.609 482.701 105.852" fill="#fff" stroke="#231f20" stroke-linejoin="round" stroke-width="3" opacity="0.2"/>
        </g>
        <g>
          <polygon points="479.051 108.73 548.635 120.159 506.033 100.412 479.051 108.73" fill="#fff" stroke="#231f20" stroke-linejoin="round" stroke-width="3"/>
          <polygon points="479.051 108.73 548.635 120.159 506.033 100.412 479.051 108.73" fill="#fff" stroke="#231f20" stroke-linejoin="round" stroke-width="3" opacity="0.3"/>
        </g>
        <g>
          <path d="M444.67,153.467c-1.48-10.769-2.284-21.653-2.58-26.2-.09-1.4-.136-2.219-.136-2.219s-11.472,11.89-11.523,29.159Z" transform="translate(-28.737 -117.733)" fill="#fff" stroke="#231f20" stroke-linejoin="round" stroke-width="3"/>
          <path d="M444.67,153.467c-1.48-10.769-2.284-21.653-2.58-26.2-.09-1.4-.136-2.219-.136-2.219s-11.472,11.89-11.523,29.159Z" transform="translate(-28.737 -117.733)" fill="#fff" stroke="#231f20" stroke-linejoin="round" stroke-width="3" opacity="0.3"/>
        </g>
        <g>
          <path d="M442.722,153.429c2.345-10.614,5.365-21.1,6.663-25.465.4-1.349.64-2.129.64-2.129s-14.882,7.176-20.918,23.356Z" transform="translate(-28.737 -117.733)" fill="#fff" stroke="#231f20" stroke-linejoin="round" stroke-width="3"/>
          <path d="M442.722,153.429c2.345-10.614,5.365-21.1,6.663-25.465.4-1.349.64-2.129.64-2.129s-14.882,7.176-20.918,23.356Z" transform="translate(-28.737 -117.733)" fill="#fff" stroke="#231f20" stroke-linejoin="round" stroke-width="3" opacity="0.2"/>
        </g>
        <path d="M535.176,212.351c-26.613-14.314-66.268-36.254-72.559-43.164-8.189-9-9.492-30.577-9.7-36.733-.035-1.062-.038-1.677-.038-1.677s-25.7,5.41-25.7,23.127v27.183a58.437,58.437,0,0,0,96.932,44.226h35.472S549.19,219.889,535.176,212.351Z" transform="translate(-28.737 -117.733)" fill="#fff" stroke="#231f20" stroke-linejoin="round" stroke-width="3"/>
        <path d="M465.177,175.839v13.685a39.579,39.579,0,0,0,39.579,39.58h54.077s-10.4-5.425-24.411-12.963C510.794,203.431,476.888,184.714,465.177,175.839Z" transform="translate(-28.737 -117.733)" fill="#fff" stroke="#231f20" stroke-linejoin="round" stroke-width="3"/>
        <path d="M480.6,181.665a39.586,39.586,0,0,0,34.8,38.152l18.47,2.241,25.724,3.255s-10.4-5.425-24.411-12.963C518.28,203.263,496.13,191.1,480.6,181.665Z" transform="translate(-28.737 -117.733)" fill="#fff" stroke="#231f20" stroke-linejoin="round" stroke-width="3"/>
        <g>
          <circle cx="406.121" cy="40.3" r="2.972" fill="#231f20"/>
          <circle cx="405.274" cy="39.452" r="0.847" fill="#231f20"/>
        </g>
        <g>
          <path d="M411.765,161.608c-4.108,4.109-4.16,12.274-4.16,12.274s4.667-5.173,9.129-5.173c7.911,0,10.448,4.5,10.448,4.5l8.385-7.248-8.385-7.9S415.873,157.5,411.765,161.608Z" transform="translate(-28.737 -117.733)" fill="#fff" stroke="#231f20" stroke-linejoin="round" stroke-width="3"/>
          <path d="M416.735,168.709c7.911,0,10.448,4.5,10.448,4.5l8.385-7.248s-20.354-10.643-27.962,7.925C407.606,173.882,412.272,168.709,416.735,168.709Z" transform="translate(-28.737 -117.733)" fill="#fff" stroke="#231f20" stroke-linejoin="round" stroke-width="3"/>
        </g>
      </g>
    </g>
  </g>
</svg>
