<svg id="Layer_1" data-name="Layer 1" xmlns="http://www.w3.org/2000/svg" viewBox="0 0 373.64 380.26"><defs><style>.cls-1{fill:#232323;}.cls-2{fill:#3f3f3f;}.cls-3{fill:#fff;opacity:0.25;}</style></defs><title>zoom</title><rect class="cls-1" x="303.79" y="250.2" width="19.37" height="122.09" transform="translate(-191.23 244.13) rotate(-43.74)"/><rect class="cls-1" x="274.69" y="219.79" width="19.37" height="122.09" transform="translate(-178.29 215.57) rotate(-43.74)"/><ellipse class="cls-1" cx="424.77" cy="427.53" rx="13.57" ry="9.77" transform="translate(-240.74 353.36) rotate(-43.74)"/><rect class="cls-2" x="336.67" y="248.23" width="32.26" height="208.18" transform="translate(-208.72 282.72) rotate(-43.74)"/><rect class="cls-1" x="339.02" y="254.1" width="15.29" height="208.18" transform="translate(-214.48 280.12) rotate(-43.74)"/><path class="cls-1" d="M167.45,70.84A104.12,104.12,0,1,0,271.27,175.26,104.12,104.12,0,0,0,167.45,70.84Zm-.54,190.44a86.32,86.32,0,1,1,86.56-86.07A86.32,86.32,0,0,1,166.91,261.28Z" transform="translate(-63.04 -59.01)"/><path class="cls-3" d="M84.31,121.56c-7.48,31.16-6.81,76,35.25,118.29,0,0,83.48,46.32,131.1-30.57l3.18,2.28a96.9,96.9,0,0,0-169.53-90Z" transform="translate(-63.04 -59.01)"/><path class="cls-2" d="M174.07,59A104.12,104.12,0,1,0,277.89,163.42,104.12,104.12,0,0,0,174.07,59Zm-.54,190.44a86.32,86.32,0,1,1,86.56-86.07A86.32,86.32,0,0,1,173.53,249.44Z" transform="translate(-63.04 -59.01)"/></svg>