<?xml version="1.0" encoding="utf-8"?>
<!-- Generator: Adobe Illustrator 21.1.0, SVG Export Plug-In . SVG Version: 6.00 Build 0)  -->
<svg version="1.1" id="Layer_1" xmlns="http://www.w3.org/2000/svg" xmlns:xlink="http://www.w3.org/1999/xlink" x="0px" y="0px"
	 viewBox="0 0 3849.9 304.2" style="enable-background:new 0 0 3849.9 304.2;" xml:space="preserve">
<style type="text/css">
	.st0{fill:#FFFFFF;}
	.st1{fill:#333333;}
	.st2{fill:#FFFFFF;stroke:#FFFFFF;stroke-miterlimit:10;}
	.st3{fill:#221F1F;stroke:#221F1F;stroke-miterlimit:10;}
	.st4{fill:#1C0F06;}
	.st5{fill:#221F1F;}
</style>
<title>4-2</title>
<g>
	<path class="st0" d="M30.5,152.9L30.5,152.9c-1,14.9-5.9,22.1-14.8,21.8c0,0,0,0-0.1,0c0,0,0,0,0,0c-0.3-0.1-0.7,0-1,0.2
		c-0.3,0.3-0.5,0.7-0.5,1.2c-0.1,0.5,0,1,0.3,1.4c0.2,0.4,0.5,0.7,0.9,0.8c0.1,0,0.2,0,0.3,0c9.4,1.5,15.8-1.9,19.3-10.3
		c0.5-1.3,1-2.8,1.5-4.3c0.7-2.7,1.3-5.5,1.7-8.3c0-0.1,0-0.2,0-0.3C35.6,152.2,33.1,151.5,30.5,152.9z"/>
	<path class="st0" d="M31.1,159.7L31.1,159.7c2.8,13.2-1.2,21.6-12,25.2l-0.1,0c-0.4,0.1-0.8,0.3-1.1,0.6c-0.3,0.3-0.4,0.8-0.3,1.2
		c0.1,0.4,0.3,0.8,0.7,1.1c0.4,0.3,0.8,0.4,1.3,0.3v0c0.1,0,0.2-0.1,0.3-0.1c11.8-2.7,18.7-8.5,20.7-17.2c0.3-1.4,0.5-2.9,0.6-4.4
		c0.2-2.6,0.1-5.3-0.1-7.9l-0.1-0.3C37.1,157,33.9,157.4,31.1,159.7z"/>
	<path class="st0" d="M50.4,157.8l-0.1-0.4c-3.9-1.9-7.2-1.4-9.9,1.4v0c3.4,16.7-0.2,27.1-11,31.2l-0.1,0c-0.5,0.1-0.9,0.4-1.1,0.8
		c-0.3,0.5-0.3,1-0.2,1.5c0.1,0.5,0.3,1,0.7,1.4c0.3,0.3,0.8,0.5,1.3,0.4l0,0c0.1-0.1,0.2-0.1,0.3-0.1c11.7-3,18.4-10,20.1-20.9
		c0.2-1.8,0.4-3.7,0.4-5.5C50.9,164.4,50.7,161.1,50.4,157.8z"/>
	<path class="st0" d="M66.9,147.8L66.9,147.8c-2.9-0.7-5.1,0.8-6.6,4.2c0.1,0.1,0.1,0.2,0.1,0.3c1.3,2.6,2.8,5,4.4,7.5
		c0.9,1.4,1.9,2.6,2.8,3.7c6.1,7,13.4,8.5,21.8,4.5c0.1-0.1,0.1-0.1,0.2-0.1c0.3-0.2,0.5-0.6,0.6-1c0.1-0.5,0-1-0.2-1.4
		c-0.2-0.4-0.5-0.8-0.9-1c-0.3-0.1-0.7-0.1-1,0.1c0,0,0,0-0.1,0c0,0,0,0,0,0C79.7,167.3,72.7,161.7,66.9,147.8z"/>
	<path class="st0" d="M68.6,154.5L68.6,154.5c-3.4-1.5-6.7-1-9.9,1.4l0.1,0.3c0.6,2.6,1.5,5.1,2.5,7.6c0.6,1.4,1.3,2.7,2,4
		c4.8,7.8,13.2,11.4,25.4,10.8c0.1,0,0.2,0,0.3,0v0c0.4-0.1,0.8-0.3,1.1-0.6c0.3-0.3,0.4-0.8,0.3-1.2c-0.1-0.4-0.3-0.8-0.7-1.1
		c-0.4-0.3-0.8-0.4-1.3-0.3l-0.1,0C76.8,174.8,70.2,167.9,68.6,154.5z"/>
	<path class="st0" d="M59.4,156.2L59.4,156.2c-3.5-2-6.8-1.5-9.9,1.4l0.1,0.4c0.7,3.3,1.7,6.5,2.8,9.6c0.6,1.8,1.4,3.5,2.2,5.1
		c5.1,9.9,13.8,14.8,26,14.4c0.1,0,0.2,0,0.3,0l0,0c0.5-0.1,0.9-0.4,1.1-0.8c0.3-0.5,0.4-1,0.2-1.5c-0.1-0.5-0.3-1-0.7-1.4
		c-0.3-0.3-0.8-0.5-1.3-0.4l-0.1,0C68.5,182,61.5,173.1,59.4,156.2z"/>
	<path class="st0" d="M64.7,132.7c-0.2-0.4-0.5-0.7-0.8-1c-1.4-1.8-3.1-3.4-5-4.7c-4.2-3.2-9.6-4.6-14.8-3.9
		c-5.2,0.7-9.8,3.5-12.8,7.7c-1.4,1.8-2.5,3.7-3.3,5.8c-0.2,0.4-0.3,0.9-0.5,1.3c-0.3,7.8,1,15.6,3.8,22.9c0,0,0,0,0,0
		c6.4,0.6,12.9,0.5,19.4-0.4c6.1-0.9,12.1-2.5,17.7-4.8C68.9,147.9,67.6,140,64.7,132.7z"/>
	<path class="st0" d="M58.3,61.8c6.1-2.3,9-4.6,8.7-6.6c-0.1-0.6-0.5-1.1-0.9-1.5c-7.8-3.5-19.6-6.6-35.1-9.3
		c-14,6.9-24.1,13-30.5,18.5C0.1,63.4-0.1,64,0,64.6c0.3,2.1,3.8,3.4,10.4,3.9c7.8,0.5,15.7,0.2,23.4-1l0.9-0.1l0.9-0.1
		C43.4,66.2,51,64.4,58.3,61.8z"/>
	<path class="st0" d="M59.6,82.1c-1.4-3.5-3.1-7-4.9-10.3c-1.9-3.4-4.1-6.6-6.6-9.6c-5.4-6.3-10.6-9.1-15.6-8.4
		c-5,0.7-9.1,4.8-12.1,12.3c-1.4,3.5-2.5,7.1-3.2,10.8c-0.7,3.7-1.1,7.5-1.3,11.3c-0.3,4-0.3,8-0.1,12c0.4,13,2.5,25.8,6.3,38.2
		c8.1,3.6,17,4.9,25.8,3.9c8.3-1.2,16-4.9,22.2-10.6c-0.6-12.9-2.8-25.8-6.6-38.2C62.3,89.4,61,85.6,59.6,82.1z"/>
	<path class="st1" d="M40.1,150.4c-0.1-0.8-0.4-1.5-0.8-2.1c-0.3-0.5-0.7-0.7-1.3-0.7c-0.4,0.1-0.8,0.4-1,1c-0.4,1.5-0.1,3,0.7,4.3
		c0.4,0.6,0.8,0.8,1.3,0.7c0.4-0.1,0.8-0.4,1-1.1C40.2,151.9,40.3,151.1,40.1,150.4z"/>
	<path class="st1" d="M59.7,147.6c-0.1-0.8-0.4-1.5-0.8-2.1c-0.3-0.5-0.7-0.7-1.3-0.7c-0.4,0.1-0.8,0.4-1,1c-0.4,1.5-0.1,3,0.7,4.3
		c0.4,0.6,0.8,0.8,1.3,0.7c0.4-0.1,0.8-0.4,1-1.1C59.8,149.1,59.9,148.3,59.7,147.6z"/>
</g>
<g>
	<g>
		<g transform="matrix( 1.5819854736328125, 0.7490997314453125, 1.4196319580078125, -0.8710174560546875, -2001.1,933.85) ">
			<g>
				<g id="Layer0_1_MEMBER_0_FILL_1_">
					<path class="st2" d="M655.5,1421.5c-1.4,0.1-2.9,0.1-4.5,0c-3.2-0.2-5.1-0.8-5.9-1.8l1.3,4.4c1.2,3.5,2.6,6.5,4.3,9.1
						c5.3,8.3,11.9,10.6,19.7,7c-0.5-3.5-1.4-6.8-2.9-10.1C664.5,1423.4,660.5,1420.6,655.5,1421.5z"/>
				</g>
			</g>
		</g>
		<g transform="matrix( -2.0837860107421875, 1.3221893310546875, 1.304107666015625, 1.25457763671875, 961.7,-1119.95) ">
			<g>
				<g id="Layer0_3_MEMBER_0_FILL_1_">
					<path class="st2" d="M353.2,667.7l-2,2.5c5.2,7.4,11.9,8.9,20.2,4.6c4.1-2.2,7.7-5.1,10.8-8.7c-1.1,0.5-3.1,0-6-1.6l-3.9-2.5
						c-4-3.5-8.7-3.2-14.1,1C356.5,664.2,354.8,665.8,353.2,667.7z"/>
				</g>
			</g>
		</g>
	</g>
	<g>
		<g transform="matrix( -2.263519287109375, -0.0985260009765625, -0.0985260009765625, 2.2636260986328125, 2350.75,-932) ">
			<g>
				<g id="Layer0_0_MEMBER_0_FILL_7_">
					<path class="st2" d="M392.2,519.1c0.3-0.9-0.2-2-1.7-3.2c-1.4-1.3-3-2.1-4.8-2.7c-2.1-0.6-3.8-0.5-5.1,0.4
						c-1.6,1-2.4,2.9-2.5,5.8c-0.2,7.7,2.2,13.5,7.1,17.4c-0.5-0.4-0.7-1.2-0.7-2.2c0-2.4,1.5-5.6,4.5-9.5
						C390.4,523.2,391.5,521.2,392.2,519.1z"/>
				</g>
			</g>
		</g>
		<g transform="matrix( -2.263519287109375, -0.0985260009765625, -0.0985260009765625, 2.2636260986328125, 2398,-931.4) ">
			<g>
				<g id="Layer0_4_MEMBER_0_FILL_1_">
					<path class="st2" d="M422.7,515.3c-2.1-1-4.6-1.8-7.4-2.5c-1.5-0.2-2.6-0.5-3.5-0.7c-1.6-0.4-2.6-0.9-3-1.6l2.1,5
						c1.8,3.9,3.8,7.4,5.9,10.5c6.7,9.6,13.8,13.2,21.2,10.8c-0.5,0.1-1.1-0.1-1.8-0.6c-1.6-1.3-2.9-4.1-3.9-8.6
						C431,521.8,427.8,517.7,422.7,515.3z"/>
				</g>
			</g>
		</g>
	</g>
	<g>
		<g transform="matrix( -0.602203369140625, -0.026214599609375, -0.026214599609375, 0.60223388671875, 637.3,782.05) ">
			<g>
				<g id="Layer0_2_FILL_5_">
					<path class="st2" d="M-889.2-1143.2c-43.8-23.5-85.7-44.7-125.6-63.8c-181.7-86.9-322.9-128.7-423.8-125.4
						c-119.8,14.3-163.2,105.6-130.1,274c5.1,25.6,17.9,39.6,38.6,42l737.9,5l131.3-0.6C-742.2-1061.5-818.3-1105.2-889.2-1143.2z"
						/>
				</g>
			</g>
		</g>
		<g transform="matrix( -2.91424560546875, -0.126861572265625, -0.1268463134765625, 2.91412353515625, 2931.3,-1487.35) ">
			<g>
				<g id="Layer0_5_MEMBER_0_FILL_1_">
					<path class="st3" d="M468.3,582.7c0.2-0.3,0.4-0.6,0.4-0.9s-0.1-0.6-0.4-0.9c-0.2-0.2-0.5-0.4-0.9-0.4c-0.3,0-0.6,0.1-0.8,0.4
						c-0.2,0.3-0.4,0.6-0.4,0.9s0.1,0.6,0.4,0.9c0.2,0.2,0.5,0.4,0.8,0.4C467.7,583.1,468,583,468.3,582.7z"/>
				</g>
			</g>
		</g>
		<g transform="matrix( -0.602203369140625, -0.026214599609375, -0.026214599609375, 0.60223388671875, 637.3,782.05) ">
			<g>
				<g id="Layer0_6_FILL_5_">
					<path class="st3" d="M-1413.2-1042.9c8.6,1,15.1,0.8,19.3-0.5c6.8-2,12.9-5.5,18.1-10.6c-11.3,8.5-29.2,10.2-53.6,5.2
						c-43.9-8.7-90.5-11.9-139.8-9.5l2.8,9.7C-1524.1-1052.2-1473.1-1050.3-1413.2-1042.9z"/>
				</g>
			</g>
		</g>
	</g>
</g>
<g>
	<path class="st0" d="M591.5,207.3c-2.1-5.2-5.5-7.8-10.3-7.8c-0.1,0-0.3,0-0.4,0c-2.4,0-7.3,1.3-14.7,4c-2,0.7-3.9,1.2-5.6,1.6
		c1.7-2.5,3.1-5,4-7.5c0.8-1.9,1.3-6.1,1.6-12.7c0.2-5.5,1.2-9.4,2.9-11.6c0.8-1.1,1.7-1.9,2.8-2.4c0.1,0,0.1-0.1,0.2-0.1
		c0.1,0,0.1,0,0.2,0c0.6,0.1,1.1,0.4,1.3,1c0.4,0.9,0.4,1.3,0.3,1.4c-0.2,1.3-1,1.9-2.5,1.9l-0.1,0l-1.6-0.2l0.9,1
		c1.5,1.8,3.4,2.5,5.6,2c2.1-0.4,3.6-1.8,4.3-4c0.5-1.4,0.7-3.4,0.7-5.9c0-2.3-0.8-4.1-2.2-5.6c-0.3-0.6-0.8-1-1.5-1.2l-0.2,0
		c-0.7-0.4-1.5-0.8-2.3-1.1c-5.4-1.7-9.9-0.5-13.3,3.7c-1.7,2.2-3.9,6.9-6.7,14.4c-0.8,2.2-1.7,4.2-2.8,6.1c-0.1,0.1-0.6,1.3-3.5,7
		c-1.3,2.1-2.5,3.7-3.6,4.6c-0.9,0.6-1.7,1-2.5,1.2c-0.2,0-0.3,0-0.5-0.1c-0.6-0.1-1.3-0.5-1-2.3l0.1-0.5l-22.7-3.5l-15.8-4
		l-0.1,0.1c-2.5,1-4.7,1.1-6.5,0.3c-0.6-1.2-1.2-2.8-1.6-4.8c-1-6.4-1.2-7.6-1.3-7.8c-0.3-2.2-0.6-4.4-0.7-6.5
		c-0.4-7.2-1.4-12.3-2.8-15.3c-2.2-4.7-6.2-7.1-11.9-7.1l-0.3,0c-1.2,0-2.3,0.2-3.3,0.6l-0.1,0c-0.1,0-0.2,0-0.3,0
		c-0.7,0-1.6,0.3-2.2,1.5c-1.1,0.9-1.8,2.1-2.4,3.6c-1.5,4.7-0.5,8.1,3.1,10c1.3,0.7,2.8,0.9,4.3,0.6c1.1-0.2,1.6-0.4,1.9-0.7
		c0.6,2.6,0.3,6.3-1,11.1c-1.8,6.3-2.6,10.4-2.4,12.5c0.2,2.6,0.6,5.3,1.4,7.8c-1.5-0.9-3-2-4.5-3.1c-6.3-4.7-10.6-7.5-13.3-8.4
		c-5-1.7-9.4-0.4-13.1,4c-0.6,0.7-1.1,1.5-1.4,2.3c-0.4,0.5-0.6,1.1-0.6,1.6c-0.5,2-0.3,4.2,0.5,6.6c0.6,1.7,1.8,3.2,3.5,4.2
		c2,1.2,4.1,1.4,6.1,0.6c1.3-0.5,2.4-1.5,3.2-2.9c0.8-1.4,0.8-1.8,0.6-2.1c-0.2-0.3-0.5-0.4-0.8-0.3l-0.1,0l-0.2,0.2
		c-1.3,0.9-2.3,0.9-3.2-0.2c-0.3-0.3-0.4-0.8-0.4-1.5c0-0.3,0-0.5,0.1-0.8c0.3-0.2,0.7-0.2,1.1-0.3c1.2-0.1,2.4,0.1,3.7,0.7
		c2.6,1,5.4,3.9,8.3,8.6c3.5,5.6,5.9,9,7.6,10.3c1.3,1.1,2.8,2.1,4.4,3c-1.7,0.5-3.4,0.9-5.1,1.2c-7,1.4-12,3-14.8,4.9
		c-4.4,2.9-6.2,7.2-5.4,12.9c0.6,4.2,2.9,6.8,6.8,7.5c4.9,0.9,8.1-0.6,9.5-4.4c0.5-1.4,0.5-2.8,0-4.3c-0.5-1.4-0.8-1.9-1.3-1.9
		c-0.1,0-0.4,0.1-0.6,0.4l-0.1,0.2l0.1,0.4c-0.3,1.9-1.4,2.1-2.1,2.1l-0.2,0l-0.1,0c-0.4,0-0.8-0.2-1.2-0.6
		c-0.5-0.3-0.7-0.8-0.7-1.5c0-0.7,0.1-1.3,0.6-1.8c0-0.1,0.1-0.1,0.2-0.2l0.1-0.1c0.7-0.5,1.5-0.9,2.4-1.2c2.6-1,6.6-0.7,11.9,0.9
		c6.3,1.9,10.3,2.8,12.5,2.7c2.1-0.1,4.3-0.5,6.5-1c-1.4,2.1-3.3,4.3-5.6,6.6c-5.3,5.3-8.6,9.4-9.8,12.2c-2.2,4.8-1.4,9.4,2.5,13.7
		c1.4,1.5,3,2.5,4.9,2.9c2,0.5,3.9,0.4,5.7-0.4c4.6-1.9,6.4-4.9,5.3-9c-0.3-1.4-1.1-2.6-2.3-3.5c-1.1-0.8-1.5-0.9-1.8-0.9
		c-0.2,0-0.4,0.1-0.5,0.2c-0.1,0.1-0.2,0.3-0.2,0.6l0,0.1l0.2,0.3c0.7,1.4,0.5,2.4-0.6,3.2c-0.3,0.2-0.7,0.3-1.1,0.3
		c-0.1,0-0.3,0-0.5,0c-0.1,0-0.2,0-0.3,0c-0.3-0.2-0.5-0.4-0.6-0.6c-0.3-0.6-0.4-1.2-0.4-1.9c0.1-1.2,0.6-2.4,1.3-3.6
		c1.5-2.4,4.8-4.6,9.8-6.7c5.5-2.4,9.1-4.2,10.9-5.6c1.2,1.5,4.1,4.1,8.6,8c3.8,3.3,6.1,6.3,6.8,8.9c0.1,0.8,0.2,1.5,0.2,2.1
		c-0.4-0.1-0.9,0-1.9,0.4c-1.4,0.5-2.6,1.4-3.4,2.7c-1.1,1.9-1.3,3.8-0.7,5.8c0.5,1.6,1.5,3.1,3.1,4.4c1.5,1.3,3.3,2,5.5,2.1
		c0.2,0,0.3,0,0.5,0c1.8,0,3.6-0.5,5.3-1.5c5-2.9,7.2-7,6.3-12.2c-0.4-2.9-2.4-7.7-5.9-14.6c-1.3-2.6-2.3-5.1-3.1-7.3
		c0.1,0.1,0.3,0.1,0.4,0.2c1.9,0.8,6.1,1.4,12.7,1.7c5.5,0.3,9.3,1.3,11.5,3c1.1,0.9,1.9,1.9,2.4,2.9c0.3,0.6,0.4,1.3,0.3,1.9
		c-0.1,0.4-0.3,0.8-0.6,1c-1-0.5-1.4-1.4-1.1-2.7l0-0.3l0-0.1c0-0.4-0.3-0.6-0.6-0.6c-0.3,0-0.7,0.2-1.6,1.4c-1,1.3-1.4,2.6-1.4,4
		c0.2,4.2,2.8,6.5,7.7,7c3.8,0.5,6.8-1.2,8.7-5c2.5-5.3,2.1-10-1.2-14c-2.1-2.6-6.4-5.7-12.7-9c-2.7-1.5-4.9-3-6.8-4.4
		c1.1-0.3,2.2-0.7,3.1-1c2-0.7,5.4-3.2,10.3-7.5c4.2-3.6,7.7-5.5,10.5-5.8c1.4-0.1,2.6,0.1,3.8,0.5c0.6,0.2,1.1,0.6,1.5,1.2
		c0.4,0.5,0.5,1,0.2,1.6l-0.4,0.8c-0.8,0.1-1.4-0.2-2.1-1.1l-0.1-0.3l-0.1-0.1c-0.3-0.2-0.7-0.2-0.9,0.1c-0.2,0.3-0.3,0.7,0,2.2
		c0.3,1.5,1,2.8,2.2,3.6c2,1.4,3.8,2,5.6,1.8c1.3-0.2,2.8-1,4.3-2.3c1.4-1.2,2.3-3.1,2.5-5.5C592.6,211.4,592.3,209.3,591.5,207.3z
		 M477.8,160l-0.3,0.1c-1.4-0.5-2-1.3-1.8-2.6c0-0.1,0.1-0.2,0.2-0.4c0,0,0,0,0.1,0.1C476.7,157.9,477.4,158.9,477.8,160L477.8,160z
		 M528.1,261.4c0-0.4,0.2-0.8,0.5-1.3C528.5,260.6,528.3,261,528.1,261.4z"/>
	<g>
		<g transform="matrix( 0.783203125, 0.12109375, -0.12109375, 0.7832489013671875, 1378.6,598.7) ">
			<g>
				<g id="Layer0_12_FILL_1_">
					<path class="st2" d="M-1091-536.7c-16-18.3-35.2-27.4-57.8-27.4c-22.6,0-41.9,9.1-57.9,27.4c-16,18.3-23.9,40.3-23.9,66.1
						c0,25.8,8,47.8,23.9,66c4.8,5.5,9.6,11.3,14.2,17.3c9.8,12.5,15.9,28.3,18.2,47.5c8.6,1.9,17.1,2.7,25.4,2.7
						c8.3,0.1,16.8-0.8,25.4-2.7c2.3-19.2,8.3-35,18-47.4c4.7-6,9.5-11.8,14.3-17.3c16-18.2,24-40.2,24-66
						C-1066.9-496.4-1074.9-518.5-1091-536.7z"/>
				</g>
			</g>
		</g>
		<g transform="matrix( 0.783203125, 0.12109375, -0.12109375, 0.7832489013671875, 1378.6,598.7) ">
			<g>
				<g id="Layer0_13_FILL_1_">
					<path class="st1" d="M-1160.5-352.2c0-1.3-0.5-2.4-1.4-3.3c-0.9-0.9-2-1.4-3.3-1.4c-1.3,0-2.4,0.5-3.3,1.4
						c-0.9,0.9-1.4,2-1.4,3.3s0.5,2.4,1.4,3.3c0.9,0.9,2,1.4,3.3,1.4c1.3,0,2.4-0.5,3.3-1.4C-1161-349.8-1160.5-350.9-1160.5-352.2z
						"/>
				</g>
			</g>
		</g>
		<g transform="matrix( 0.783203125, 0.12109375, -0.12109375, 0.7832489013671875, 1378.6,598.7) ">
			<g>
				<g id="Layer0_14_FILL_1_">
					<path class="st1" d="M-1127.5-352.2c0-1.3-0.5-2.4-1.4-3.3c-0.9-0.9-2-1.4-3.3-1.4c-1.3,0-2.4,0.5-3.3,1.4
						c-0.9,0.9-1.4,2-1.4,3.3c0,1.3,0.5,2.4,1.4,3.3c0.9,0.9,2,1.4,3.3,1.4c1.3,0,2.4-0.5,3.3-1.4
						C-1128-349.8-1127.5-350.9-1127.5-352.2z"/>
				</g>
			</g>
		</g>
	</g>
</g>
<path class="st0" d="M2085.3,251.1l-2-1.1c-18-9.9-35.7-17.6-52.4-23l8-4.4l-0.9-0.4c-9.2-4.1-18.7-6.3-28.3-6.3
	c-6.1,0-12.3,0.8-18.5,2.5c-5.6-0.6-11.2-0.9-16.6-0.9c-11.9,0-23.5,1.4-34.6,4.2l-1.1,0.3l1,0.6c5.3,3.3,10.7,6.7,16,10.3
	c-14.1,7.2-28.3,16.6-42.1,28l-1.3,1.1l72-9.1c16.2,12,31.7,24.8,46,37.8l0.7,0.6l0.1-0.9c2.4-14.6,1.8-29.3-1.8-43.9L2085.3,251.1z
	"/>
<g>
	<path class="st0" d="M2573.2,270.2c-8-13.4-12-24.6-12-33.6l-4,0.4c0,0,0,0,0,0l-7.1,0.7c1.1,11.5,5.6,26,13.6,43.6l6.5-2.9
		c-1-2.2-1.9-4.3-2.8-6.4L2573.2,270.2z"/>
	<path class="st0" d="M2514.1,242.4c0.1,0.8,0.1,1.5,0.2,2.2l-1.8,0c0.4,18.6-0.3,35.3-2,50.1l7,0.9c0.5-4,0.9-8.1,1.2-12.4l5.1,0.2
		c1.8-12.3,1.9-26.2,0.3-41.5L2514.1,242.4z"/>
	
		<rect x="2527.7" y="239.7" transform="matrix(0.9955 -9.489398e-02 9.489398e-02 0.9955 -14.0992 241.4166)" class="st0" width="7.1" height="58.6"/>
	<path class="st0" d="M2543.4,240c0-0.1,0-0.3,0-0.4l-9.9,1.4c1.3,15.4,4,29,8.1,40.7l5.3-1.2c1,3.5,2,6.9,3,10.2l6.8-2.2
		c-4.6-14.2-8.4-30.5-11.4-48.8L2543.4,240z"/>
	<path class="st0" d="M2500.3,242.5C2500.3,242.5,2500.3,242.5,2500.3,242.5l-3.8,0.4c1.7,8.8-0.1,20.5-5.4,35.2l5.8,0.6
		c-0.5,2.2-1,4.5-1.6,6.9l6.9,1.6c4.5-18.8,6.2-33.9,5.1-45.3L2500.3,242.5z"/>
</g>
<g>
	<g transform="matrix( 1.2741241455078125, -0.1215057373046875, 0.1214599609375, 1.274200439453125, 1038.05,229.15) ">
		<g>
			<g id="Layer0_16_FILL_1_">
				<path class="st0" d="M1174.2,76c-4.6-2.7-9.8-4-15.5-4c-8.7,0.1-16.1,3.2-22.3,9.3c-6.2,6.2-9.3,13.7-9.3,22.5
					c0,5.4,1.7,10.1,5.1,14c1.4,1.7,1.4,2.9,0.2,3.7c8.7,1.3,17.4,1.9,26.2,1.9s17.5-0.6,26.2-1.9c-1.2-0.8-1.2-2.1,0.2-3.7
					c3.4-3.9,5.1-8.6,5.1-14c0-4.7-0.9-9.1-2.7-13.1c-1.5-3.4-3.8-6.6-6.6-9.4C1178.9,79.2,1176.6,77.4,1174.2,76z"/>
			</g>
		</g>
	</g>
	<g transform="matrix( 1.2741241455078125, -0.1215057373046875, 0.1214599609375, 1.274200439453125, 1038.05,229.15) ">
		<g>
			<g id="Layer0_17_MEMBER_0_FILL_1_">
				<path class="st1" d="M1152.4,116.9c-0.4-0.4-1-0.7-1.6-0.7c-0.6,0-1.1,0.2-1.6,0.7c-0.4,0.4-0.7,1-0.7,1.6s0.2,1.2,0.7,1.6
					c0.5,0.4,1,0.7,1.6,0.7c0.6,0,1.2-0.2,1.6-0.7c0.4-0.4,0.7-1,0.7-1.6S1152.9,117.3,1152.4,116.9z"/>
			</g>
		</g>
	</g>
	<g transform="matrix( 1.2741241455078125, -0.1215057373046875, 0.1214599609375, 1.274200439453125, 1038.05,229.15) ">
		<g>
			<g id="Layer0_17_MEMBER_1_FILL_1_">
				<path class="st1" d="M1168.3,116.9c-0.4-0.4-1-0.7-1.6-0.7c-0.6,0-1.1,0.2-1.6,0.7c-0.4,0.4-0.7,1-0.7,1.6s0.2,1.2,0.7,1.6
					c0.5,0.4,1,0.7,1.6,0.7c0.6,0,1.2-0.2,1.6-0.7c0.4-0.4,0.7-1,0.7-1.6S1168.8,117.3,1168.3,116.9z"/>
			</g>
		</g>
	</g>
</g>
<g>
	<g transform="matrix( 0.836639404296875, 0, 0, 0.8366851806640625, 1739.3,896) ">
		<g>
			<g id="Layer0_19_FILL_1_">
				<path class="st0" d="M1761.2-854.1c-1-0.7-2-2.8-3.1-6.4c-1.3-4-6.6-5.8-15.8-5.4C1740.5-856.3,1746.8-852.3,1761.2-854.1z"/>
			</g>
		</g>
	</g>
	<g transform="matrix( 0.836639404296875, 0, 0, 0.8366851806640625, 1739.3,896) ">
		<g>
			<g id="Layer0_20_FILL_1_">
				<path class="st0" d="M1756.5-1007.3c-10.5,1.5-16.1,4.6-16.7,9.4c-0.5,4.2-1.3,6.8-2.2,7.9
					C1754.1-991.1,1760.5-996.8,1756.5-1007.3z"/>
			</g>
		</g>
	</g>
	<polygon class="st0" points="3208,123.7 3208,129.5 3219.2,134.1 3219.2,134.1 3221.7,135.1 3221.7,115.3 	"/>
	<g>
		<path class="st0" d="M3203.7,65.4c-6.1,0-11.7,1.7-16.8,5c-3.9,2.5-7.4,6.1-10.7,10.5c-7.6,10.4-11.3,22.9-11.3,37.6
			c0,14.7,3.8,27.2,11.3,37.6c3.3,4.5,6.8,8,10.7,10.5c5.1,3.4,10.7,5,16.8,5C3213.2,134.7,3213.2,99.2,3203.7,65.4z"/>
		<g transform="matrix( 4.58782958984375, 0, 0, 4.5880889892578125, 1689.75,855.65) ">
			<g>
				<g id="Layer0_21_MEMBER_0_MEMBER_0_FILL_1_">
					<path class="st0" d="M323.8-163.9c0.1-0.1,0.2-0.3,0.2-0.5s-0.1-0.3-0.2-0.5s-0.3-0.2-0.5-0.2c-0.2,0-0.3,0.1-0.5,0.2
						c-0.1,0.1-0.2,0.3-0.2,0.5s0.1,0.3,0.2,0.5c0.1,0.1,0.3,0.2,0.5,0.2C323.6-163.7,323.7-163.7,323.8-163.9z"/>
				</g>
			</g>
		</g>
		<g transform="matrix( 3.0407867431640625, 0, 0, 3.04095458984375, 1691.85,857.75) ">
			<g transform="matrix( 1, 0, 0, 1, 0,0) ">
				<g>
					<g id="FlashAICB_0_Isolation_Mode__Path__0_Layer0_0_FILL_10_">
						<path class="st4" d="M487.8-248.6c0-0.2-0.1-0.3-0.2-0.5s-0.3-0.2-0.5-0.2c-0.2,0-0.3,0.1-0.5,0.2c-0.1,0.1-0.2,0.3-0.2,0.5
							s0.1,0.3,0.2,0.5c0.1,0.1,0.3,0.2,0.5,0.2c0.2,0,0.3-0.1,0.5-0.2S487.8-248.4,487.8-248.6z"/>
					</g>
				</g>
			</g>
		</g>
		<g transform="matrix( 0.836639404296875, 0, 0, 0.8366851806640625, 1739.3,896) ">
			<g>
				<g id="Layer0_24_FILL_1_">
					<path class="st4" d="M1716-912.8c-3.7,0.6-7.3,0.4-10.8-0.5l0.5,2.1c1.7,0.1,3.5,0.1,5.3-0.1
						C1712.9-911.6,1714.6-912.1,1716-912.8z"/>
				</g>
			</g>
		</g>
	</g>
</g>
<path class="st0" d="M3806.3,118.6c0.5-0.7,1-1.4,1.4-2.1c0.7-1.1,1.3-2.2,1.9-3.4l0.2-0.4l24.9,8.2l-22.6-15.1c2-5.7,3-11.8,3-18.4
	c0-5.1-0.6-10-1.8-14.7l19.8-9.1l-21.6,3.5c-2.7-7.1-7-13.5-12.8-19.4c-1-1-2-1.9-3-2.8l13.8-25.3l-19.9,20.6
	c-3.7-2.4-7.6-4.4-11.6-5.8l2.8-12.7l-6.1,11.6c-4.6-1.3-9.5-2-14.7-2l-6.8-23.2l-1.3,23.6c-9.6,1.2-18.3,4.7-26,10.5l-17.7-20.2
	l10.4,26.7c-6.8,7.2-11.4,15.3-13.7,24.3l-29.8-2.3l28.4,10.3c-0.2,2-0.3,4.1-0.3,6.2c0,2.3,0.1,4.5,0.4,6.7
	c-8.9,1.4-17.1,3.5-25.1,6.4l-1.2,0.4l1.1,0.5c0.6,0.3,1.2,0.5,1.8,0.8l0.1,0c0.1,0,10.1,4.5,17.4,5.7c0.6,0.1,1.2,0.2,1.7,0.3
	l0.4,0.1l6.1-3.4c0.2,0.8,0.5,1.5,0.8,2.2l-21.1,13l23.8-6.9c1.9,3.6,4.2,7,7,10.3c0,0,0,0,0,0l-0.3,0.3l0.3,0.3
	c0.9,1.1,1.9,2.1,2.9,3.2c2.3,2.3,4.8,4.5,7.4,6.3c9.4,6.8,20.3,10.2,32.5,10.2c12.6,0,23.9-3.7,33.5-11l12,12.3l-8.5-15.2
	c0.9-0.8,1.8-1.6,2.7-2.5l8.6,4.8l0.4-0.1c0.5-0.1,1.1-0.2,1.7-0.2c7.3-1.1,17.3-5.6,17.4-5.7l0,0c0.6-0.3,1.2-0.5,1.8-0.8l1.1-0.5
	l-1.2-0.4C3821.5,122,3814.2,120,3806.3,118.6z"/>
<g>
	<g transform="matrix( 2.0576171875, 0, 0, 2.0576934814453125, 406.45,329) ">
		<g>
			<g id="Layer0_28_MEMBER_5_MEMBER_6_FILL_1_">
				<path class="st2" d="M1637-122.9c0-4.7-1.6-8.6-4.8-11.8c-3.2-3.1-7-4.5-11.5-4.2c-4.5,0.3-8.3,2.2-11.5,5.7
					c-3.2,3.5-4.7,7.7-4.7,12.4c0,4.7,1.6,6.1,4.8,4.1c3.2-2,7-1.6,11.5,0.9c4.5,2.6,8.3,3.2,11.5,1.9
					C1635.4-115.2,1637-118.2,1637-122.9z"/>
			</g>
		</g>
	</g>
	<g transform="matrix( 2.0576171875, 0, 0, 2.0576934814453125, 406.45,329) ">
		<g>
			<g id="Layer0_29_FILL_1_">
				<path class="st5" d="M1611.9-123.6c0-0.5-0.2-0.9-0.5-1.3s-0.8-0.5-1.3-0.5c-0.5,0-0.9,0.2-1.3,0.5c-0.4,0.4-0.5,0.8-0.5,1.3
					c0,0.5,0.2,0.9,0.5,1.3c0.4,0.4,0.8,0.5,1.3,0.5c0.5,0,0.9-0.2,1.3-0.5S1611.9-123,1611.9-123.6z"/>
			</g>
		</g>
	</g>
	<g transform="matrix( 2.0576171875, 0, 0, 2.0576934814453125, 406.45,329) ">
		<g>
			<g id="Layer0_30_FILL_1_">
				<path class="st5" d="M1620.9-123.6c0-0.5-0.2-0.9-0.5-1.3c-0.4-0.4-0.8-0.5-1.3-0.5c-0.5,0-0.9,0.2-1.3,0.5
					c-0.4,0.4-0.5,0.8-0.5,1.3c0,0.5,0.2,0.9,0.5,1.3c0.4,0.4,0.8,0.5,1.3,0.5c0.5,0,0.9-0.2,1.3-0.5
					C1620.7-122.6,1620.9-123,1620.9-123.6z"/>
			</g>
		</g>
	</g>
	<g transform="matrix( 2.0576171875, 0, 0, 2.0576934814453125, 406.45,329) ">
		<g>
			<g id="Layer0_31_FILL_1_">
				<path class="st5" d="M1616.5-108.3c-0.3-0.3-0.8-0.6-1.4-0.9c-0.7-0.2-1.4-0.4-2-0.4c-0.7,0-1.2,0.1-1.5,0.4
					c-0.3,0.2-0.3,0.5,0,0.9c0,0,0.1,0.1,0.1,0.1c-0.2-0.3-0.1-0.5,0.3-0.6c0.4-0.1,0.9-0.2,1.5-0.2c0.6,0,1.2,0.1,1.8,0.2
					c0.6,0.1,1.1,0.3,1.4,0.6C1616.5-108.2,1616.5-108.3,1616.5-108.3z"/>
			</g>
		</g>
	</g>
</g>
</svg>
